<svg width="221" height="150" viewBox="0 0 221 150" fill="none" xmlns="http://www.w3.org/2000/svg">
<path d="M35.4167 150L221 150L190.697 114.371L190.697 35.5186C190.697 26.1297 183.086 18.5186 173.697 18.5186L35.4167 18.5186C26.0278 18.5186 18.4167 26.1297 18.4167 35.5186L18.4167 133C18.4167 142.389 26.0278 150 35.4167 150Z" fill="#006FFF"/>
<path d="M207.594 134.237C189.465 136.424 177.242 132.001 156.871 120.395L133.192 124.342C156.843 144.207 192.135 152.955 215.1 143.063L207.594 134.237Z" fill="#0048A5"/>
<path d="M128.136 150C107.946 140.908 96.5838 133.817 82.8752 120.395L35.5181 124.342C41.2574 136.156 46.4817 142.826 58.76 150L128.136 150Z" fill="#0048A5"/>
<path d="M184.496 66.1183C185.285 81.9077 169.697 79.9341 162.79 76.9735V24.6709C170.026 32.2367 183.706 50.3288 184.496 66.1183Z" fill="#0048A5"/>
<path d="M17.0002 130.481L200.42 130.481L171.519 96.5006L171.281 96.2205L171.281 95.8528L171.281 17C171.281 8.16345 164.118 1 155.281 1L17.0002 1.00002C8.16362 1.00002 1.00017 8.16346 1.00017 17L1.00018 114.481C1.00018 123.318 8.16362 130.481 17.0002 130.481Z" fill="white" stroke="#006FFF" stroke-width="2"/>
<path d="M29.4668 82.4787C41.3464 78.8159 51.2453 74.125 61.0515 66.6944C67.4817 61.8219 74.9554 55.8871 77.4733 48.0602C79.3674 42.1725 72.0694 45.8364 69.6343 47.6217C55.7302 57.8158 44.9864 85.5527 57.2179 86.9728C64.3258 87.798 73.6966 80.4539 79.0182 76.8336C87.733 70.9048 95.5616 63.8204 102.65 56.1715C103.728 55.008 115.261 41.605 107.227 44.991C96.7689 49.3986 76.8805 68.9429 84.5684 81.2729C92.4471 93.909 114.403 74.8767 120.473 68.9963C123.011 66.5379 128.884 60.7753 128.884 60.7753C128.884 60.7753 127.684 62.3107 127.082 63.0772C125.532 65.0508 124.053 67.0642 122.733 69.1881C121.402 71.3305 116.733 78.2586 122.419 78.2586C127.824 78.2586 132.975 75.5731 138.125 72.1202" stroke="black" stroke-width="2" stroke-linecap="round" stroke-linejoin="round"/>
</svg>
