<svg width="284" height="284" viewBox="0 0 284 284" fill="none" xmlns="http://www.w3.org/2000/svg">
<mask id="mask0_70_236" style="mask-type:alpha" maskUnits="userSpaceOnUse" x="0" y="0" width="284" height="284">
<circle cx="142" cy="142" r="142" fill="#C4C4C4"/>
</mask>
<g mask="url(#mask0_70_236)">
<circle cx="142" cy="141.999" r="142" fill="#6A32B1"/>
<g filter="url(#filter0_f_70_236)">
<path d="M146.136 199.558C146.136 243.148 110.799 278.485 67.2084 278.485C23.6182 278.485 -11.7188 243.148 -11.7188 199.558C-11.7188 155.968 23.6182 120.631 67.2084 120.631C110.799 120.631 146.136 155.968 146.136 199.558Z" fill="#88E9F0"/>
</g>
<g filter="url(#filter1_f_70_236)">
<circle cx="129.936" cy="231.956" r="78.9272" fill="#B2F3C0"/>
</g>
<g filter="url(#filter2_f_70_236)">
<circle cx="220.927" cy="187.839" r="78.9272" fill="#F6F387"/>
</g>
<g filter="url(#filter3_f_70_236)">
<circle cx="253.325" cy="127.869" r="78.9272" fill="#FCC68A"/>
</g>
<g filter="url(#filter4_f_70_236)">
<circle cx="205.073" cy="45.8393" r="78.9272" fill="#F9959F"/>
</g>
<g filter="url(#filter5_f_70_236)">
<circle cx="141.655" cy="35.4995" r="78.9272" fill="#DD97ED"/>
</g>
<g filter="url(#filter6_f_70_236)">
<circle cx="44.4609" cy="87.1987" r="78.9272" fill="#9AA6FC"/>
</g>
<path d="M197.491 28.1056L205.285 31.0205L190.852 45.8518L182.621 42.77L182.043 32.433L174.827 39.8551L166.595 36.7733L165.453 16.125L173.247 19.0399L173.157 31.8167L181.478 22.1217L189.273 25.0366L189.183 37.8134L197.491 28.1056Z" fill="#222222"/>
<path d="M208.855 34.7314L226.485 48.2016L223.545 52.0539L211.782 43.0781L210.306 45.0042L222.068 53.9929L219.41 57.4728L207.648 48.497L206.171 50.4231L217.933 59.3989L214.98 63.2641L197.349 49.7939L208.855 34.7314Z" fill="#222222"/>
<path d="M236.399 58.9496L226.383 67.155L235.757 78.6091L231.108 82.41L217.047 65.2417L231.712 53.2354L236.399 58.9496Z" fill="#222222"/>
<path d="M249.728 101.544C243.795 104.01 239.558 99.862 236.489 93.7625C233.304 87.4062 232.495 81.2426 238.929 78.0323L240.161 77.416C246.543 74.1672 251.025 78.4818 254.248 84.8124C257.304 90.9118 258.126 96.793 252.63 100.08L249.214 93.3131C250.563 91.862 250.01 89.7818 248.867 87.5218C247.468 84.8509 245.837 82.7963 243.076 84.2345L242.665 84.44C239.892 85.7883 240.534 88.3436 241.856 91.0531C242.999 93.3259 244.36 95.0081 246.325 94.7769L249.728 101.544Z" fill="#222222"/>
<path d="M258.447 128.856L257.098 129.151C250.113 130.718 246.825 125.466 245.272 118.506C243.744 111.533 244.514 105.382 251.525 103.867L252.874 103.572C259.885 101.992 263.146 107.257 264.7 114.23C266.228 121.203 265.445 127.315 258.447 128.856ZM256.418 121.742C259.448 121.113 259.435 118.493 258.832 115.527C258.138 112.573 257.034 110.185 254.029 110.891L253.58 110.994C250.537 111.623 250.537 114.243 251.153 117.222C251.846 120.162 252.951 122.551 255.968 121.832L256.418 121.742Z" fill="#222222"/>
<path d="M268 133.273L267.397 142.505L257.458 149.26L266.434 157.26L265.83 166.479L246.928 165.247L247.416 157.876L257.509 158.531L247.904 150.48L248.148 146.794L258.716 140.066L248.623 139.411L249.111 132.04L268 133.273Z" fill="#222222"/>
<path d="M263.301 174.647L255.622 195.487L251.063 193.805L256.187 179.911L253.914 179.077L248.79 192.971L244.668 191.455L249.792 177.561L247.519 176.727L242.396 190.621L237.824 188.939L245.503 168.098L263.301 174.647Z" fill="#222222"/>
<path d="M225.818 207.185L235.77 215.48L241.394 208.726L246.004 212.578L230.017 231.762L225.407 227.91L231.031 221.156L221.08 212.86L225.818 207.185Z" fill="#222222"/>
<path d="M201.291 243.05L200.456 241.945C196.129 236.244 199.545 231.069 205.22 226.78C210.935 222.504 216.841 220.642 221.13 226.382L221.965 227.487C226.305 233.201 222.877 238.363 217.188 242.665C211.487 246.953 205.606 248.764 201.291 243.05ZM206.928 238.234C208.752 240.726 211.14 239.634 213.58 237.849C215.981 235.987 217.689 233.997 215.801 231.557L215.519 231.185C213.683 228.681 211.294 229.772 208.841 231.57C206.453 233.419 204.745 235.409 206.646 237.862L206.928 238.234Z" fill="#222222"/>
<path d="M184.79 247.582C185.42 249.162 184.598 250.895 183.031 251.499C181.465 252.09 179.718 251.332 179.127 249.765C178.524 248.173 179.294 246.452 180.887 245.849C182.453 245.258 184.187 245.99 184.79 247.582Z" fill="#222222"/>
<path d="M154.19 247.853L155.308 260.745L164.065 259.987L164.579 265.971L139.719 268.116L139.205 262.132L147.963 261.374L146.845 248.482L154.19 247.853Z" fill="#222222"/>
<path d="M128.368 254.492L129.408 248.097L136.714 249.278L133.684 268L126.377 266.819L127.417 260.424L116.451 258.652L115.411 265.047L108.092 263.866L111.122 245.144L118.442 246.325L117.401 252.72L128.368 254.492Z" fill="#222222"/>
<path d="M100.49 261.311L80.1758 252.348L82.1404 247.905L95.6877 253.889L96.6636 251.668L83.1164 245.684L84.8884 241.665L98.4356 247.648L99.4115 245.427L85.8643 239.443L87.829 234.987L108.143 243.95L100.49 261.311Z" fill="#222222"/>
<path d="M63.9185 241.676L46.9941 225.946L51.0904 221.541L62.6088 232.251L64.1882 230.556L54.031 221.105L57.8062 217.047L67.9634 226.498L71.4305 222.774L76.8365 227.808L63.9185 241.676Z" fill="#222222"/>
<path d="M43.5407 221.863L30.9951 203.552L35.0015 200.804L43.361 213.016L45.3642 211.642L37.0047 199.43L40.6258 196.952L48.9853 209.164L50.9885 207.79L42.629 195.578L46.6482 192.83L59.1939 211.141L43.5407 221.863Z" fill="#222222"/>
<path d="M24.9341 190.222L37.0174 185.586L31.7141 171.77L37.3256 169.612L45.2742 190.325L27.5793 197.118L24.9341 190.222Z" fill="#222222"/>
<path d="M17.1133 163.565L29.9157 161.691L27.7841 147.052L33.7295 146.179L36.9397 168.124L18.1919 170.859L17.1133 163.565Z" fill="#222222"/>
<path d="M25.2676 120.035L26.6416 120.137C33.794 120.625 35.4376 126.596 34.9368 133.71C34.4103 140.824 31.9192 146.5 24.7668 145.96L23.3928 145.858C16.2275 145.37 14.5967 139.399 15.0975 132.272C15.624 125.145 18.1152 119.521 25.2676 120.035ZM25.1777 127.431C22.0959 127.161 21.3511 129.691 21.0943 132.696C20.9145 135.726 21.2997 138.32 24.3816 138.5L24.8438 138.538C27.9385 138.808 28.6833 136.291 28.9401 133.261C29.1199 130.243 28.7346 127.649 25.64 127.469L25.1777 127.431Z" fill="#222222"/>
<path d="M28.4776 83.8868L31.4952 76.1309L46.1468 90.7567L42.9622 98.9492L32.6124 99.3858L39.9446 106.705L36.76 114.898L16.0732 115.784L19.0909 108.028L31.8676 108.297L22.2754 99.8481L25.2931 92.0793L38.0698 92.349L28.4776 83.8868Z" fill="#222222"/>
<path d="M48.5481 67.4499C52.0537 63.482 56.9846 57.8962 60.6828 60.8753C64.9203 64.2525 62.0568 69.9025 57.8963 75.1159C53.7359 80.3037 49.6781 84.1175 44.6316 80.9971L49.4598 74.9362C51.1291 75.193 52.6572 73.8961 54.0954 72.0855C55.5336 70.2877 56.9846 67.848 55.8418 66.9234C55.1869 66.4098 53.6588 68.1176 51.6941 70.3648C48.1886 74.3326 43.2576 79.9185 39.5594 76.9522C35.3219 73.575 38.1855 67.9122 42.3331 62.6987C46.5064 57.5238 50.5385 53.6844 55.6106 56.8304L50.7824 62.8913C49.0874 62.6217 47.585 63.9315 46.1468 65.742C44.7087 67.5398 43.2191 69.9539 44.4005 70.9041C45.0554 71.4177 46.5834 69.6971 48.5481 67.4499Z" fill="#222222"/>
<path d="M68.1691 54.5192L72.0856 59.6684L66.2044 64.1499L54.7246 49.0618L60.6058 44.5803L64.5223 49.7295L73.3568 43.0008L69.4404 37.8516L75.3344 33.3701L86.8142 48.4582L80.9202 52.9397L77.0037 47.7905L68.1691 54.5192Z" fill="#222222"/>
<path d="M88.3553 27.1426L96.8046 44.1055L90.1915 47.4056L81.7422 30.4427L88.3553 27.1426Z" fill="#222222"/>
<path d="M111.7 18.963C115.45 17.8459 119.533 20.0802 120.573 23.8683C121.703 27.605 119.443 31.7141 115.668 32.7414L105.215 35.7462L106.499 40.1891L99.3984 42.2309L94.1465 24.0095L111.7 18.963ZM112.355 27.9132C112.779 27.7976 113.1 27.5408 113.305 27.1556C113.523 26.7575 113.575 26.3466 113.446 25.9228C113.318 25.4862 113.061 25.1652 112.676 24.9598C112.291 24.7286 111.88 24.6901 111.456 24.8057L102.788 27.2968L103.687 30.4043L112.355 27.9132Z" fill="#222222"/>
<path d="M137.934 27.0656C137.883 25.3578 139.244 24.0095 140.913 23.9838C142.582 23.9581 143.969 25.2679 143.995 26.9372C144.021 28.645 142.711 29.9933 141.016 30.019C139.334 30.0575 137.96 28.7734 137.934 27.0656Z" fill="#222222"/>
<ellipse cx="108.568" cy="116.839" rx="14.8204" ry="32.7427" fill="#222222"/>
<path d="M145.792 198.179C164.971 198.179 175.418 178.074 177.156 171.641C177.156 171.641 165.782 191.286 145.792 191.286C125.801 191.286 113.049 171.641 113.049 171.641C116.697 178.074 126.612 198.179 145.792 198.179Z" fill="#222222"/>
<ellipse cx="175.432" cy="116.839" rx="14.8204" ry="32.7427" fill="#222222"/>
</g>
<defs>
<filter id="filter0_f_70_236" x="-80.6508" y="51.6988" width="295.719" height="295.719" filterUnits="userSpaceOnUse" color-interpolation-filters="sRGB">
<feFlood flood-opacity="0" result="BackgroundImageFix"/>
<feBlend mode="normal" in="SourceGraphic" in2="BackgroundImageFix" result="shape"/>
<feGaussianBlur stdDeviation="34.466" result="effect1_foregroundBlur_70_236"/>
</filter>
<filter id="filter1_f_70_236" x="-17.9228" y="84.0963" width="295.719" height="295.719" filterUnits="userSpaceOnUse" color-interpolation-filters="sRGB">
<feFlood flood-opacity="0" result="BackgroundImageFix"/>
<feBlend mode="normal" in="SourceGraphic" in2="BackgroundImageFix" result="shape"/>
<feGaussianBlur stdDeviation="34.466" result="effect1_foregroundBlur_70_236"/>
</filter>
<filter id="filter2_f_70_236" x="73.0675" y="39.9801" width="295.719" height="295.719" filterUnits="userSpaceOnUse" color-interpolation-filters="sRGB">
<feFlood flood-opacity="0" result="BackgroundImageFix"/>
<feBlend mode="normal" in="SourceGraphic" in2="BackgroundImageFix" result="shape"/>
<feGaussianBlur stdDeviation="34.466" result="effect1_foregroundBlur_70_236"/>
</filter>
<filter id="filter3_f_70_236" x="105.466" y="-19.9906" width="295.719" height="295.719" filterUnits="userSpaceOnUse" color-interpolation-filters="sRGB">
<feFlood flood-opacity="0" result="BackgroundImageFix"/>
<feBlend mode="normal" in="SourceGraphic" in2="BackgroundImageFix" result="shape"/>
<feGaussianBlur stdDeviation="34.466" result="effect1_foregroundBlur_70_236"/>
</filter>
<filter id="filter4_f_70_236" x="57.2135" y="-102.02" width="295.719" height="295.719" filterUnits="userSpaceOnUse" color-interpolation-filters="sRGB">
<feFlood flood-opacity="0" result="BackgroundImageFix"/>
<feBlend mode="normal" in="SourceGraphic" in2="BackgroundImageFix" result="shape"/>
<feGaussianBlur stdDeviation="34.466" result="effect1_foregroundBlur_70_236"/>
</filter>
<filter id="filter5_f_70_236" x="-6.20401" y="-112.36" width="295.719" height="295.719" filterUnits="userSpaceOnUse" color-interpolation-filters="sRGB">
<feFlood flood-opacity="0" result="BackgroundImageFix"/>
<feBlend mode="normal" in="SourceGraphic" in2="BackgroundImageFix" result="shape"/>
<feGaussianBlur stdDeviation="34.466" result="effect1_foregroundBlur_70_236"/>
</filter>
<filter id="filter6_f_70_236" x="-103.398" y="-60.6606" width="295.719" height="295.719" filterUnits="userSpaceOnUse" color-interpolation-filters="sRGB">
<feFlood flood-opacity="0" result="BackgroundImageFix"/>
<feBlend mode="normal" in="SourceGraphic" in2="BackgroundImageFix" result="shape"/>
<feGaussianBlur stdDeviation="34.466" result="effect1_foregroundBlur_70_236"/>
</filter>
</defs>
</svg>
