<svg width="171" height="165" viewBox="0 0 171 165" fill="none" xmlns="http://www.w3.org/2000/svg">
<path d="M100.057 96.2716L109.655 102.412C124.109 112.494 132.695 119.649 137.681 125.729C142.521 131.631 143.924 136.461 143.924 142.144C143.924 146.526 141.786 151.527 138.034 155.468C134.311 159.377 129.229 162 123.597 162C119.481 162 116.072 161.05 113.108 159.261C110.116 157.455 107.42 154.698 104.898 150.862C99.7945 143.1 95.7125 131.42 91.3105 115.787L91.2955 115.733L91.2785 115.681L87.7367 104.681L84.6681 95.1504L81.9903 104.798L78.9432 115.776C78.9422 115.78 78.9411 115.783 78.94 115.787C73.6748 134.212 68.745 145.732 63.4562 152.624C60.848 156.024 58.2066 158.223 55.4593 159.59C52.717 160.954 49.7032 161.572 46.2266 161.572C40.2039 161.572 35.1391 158.753 31.5212 154.753C27.8546 150.699 25.8996 145.678 25.8996 141.717C25.8996 135.359 28.3505 129.548 33.9248 123.294C39.5716 116.96 48.29 110.326 60.5472 102.442C60.5484 102.442 60.5497 102.441 60.551 102.44L70.1932 96.2716L79.5013 90.317L68.4599 90.7467L57.4681 91.1745L57.4589 91.1749C36.4035 92.0592 22.6249 90.5755 14.1916 86.8112C10.0613 84.9676 7.33773 82.6298 5.61396 79.8477C3.88113 77.0508 3 73.5485 3 69.1167C3 61.582 5.83784 56.363 9.68013 52.9928C13.5935 49.5603 18.7025 47.9167 23.327 47.9167C34.8848 47.9167 45.9489 54.6231 64.5522 69.6766L64.5592 69.6823L64.5663 69.688L73.3597 76.7157L81.8708 83.5179L78.0413 73.3178L74.0808 62.7693C74.0794 62.7653 74.0779 62.7614 74.0765 62.7574C67.5105 44.807 65.0425 33.3042 65.0425 25.9722C65.0425 19.8939 66.7634 14.1041 70.1012 9.90211C73.3706 5.78641 78.332 3 85.3696 3C92.5804 3 97.6342 5.80306 100.948 9.91787C104.33 14.117 106.063 19.8996 106.063 25.9722C106.063 35.4934 102.739 45.99 96.6018 62.7568C96.6004 62.7608 96.5989 62.7648 96.5974 62.7688L92.6368 73.3178L88.8073 83.5179L97.3183 76.7157L106.092 69.7038C106.095 69.7011 106.099 69.6984 106.102 69.6956C128.421 52.1695 139.634 48.3444 147.351 48.3444C152.207 48.3444 157.303 49.9983 161.145 53.4089C164.922 56.7616 167.678 61.9758 167.678 69.5444C167.678 73.7729 166.658 77.1297 164.737 79.8389C162.803 82.5677 159.788 84.8746 155.411 86.6972C146.539 90.3911 132.697 91.8435 113.201 91.1741C113.199 91.1741 113.198 91.174 113.196 91.174L101.786 90.7466L90.776 90.3341L100.057 96.2716Z" fill="#BA8DEA" stroke="#333333" stroke-width="6"/>
</svg>
