<svg width="61" height="74" viewBox="0 0 61 74" fill="none" xmlns="http://www.w3.org/2000/svg">
<path d="M60.9285 73.3351C40.6511 73.3351 20.4292 73.3351 0.131075 73.3351C0.091845 73.0882 0.0156925 72.8367 0.0156925 72.5851C0.0133848 58.43 -0.0281529 44.2749 0.0341537 30.1197C0.101076 14.13 13.0424 0.722571 28.9675 0.0302758C45.2826 -0.678173 59.0547 11.1232 60.8662 27.3806C60.9769 28.3682 60.9908 29.3721 60.9908 30.369C61 44.4087 61 58.4485 61 72.4882C61 72.749 60.9562 73.0098 60.9285 73.3351ZM16.6239 64.1622C20.9876 64.1622 25.2545 64.1622 29.5052 64.1622C29.5052 56.517 29.5052 48.9548 29.5052 41.3949C25.1622 41.3949 20.9253 41.3949 16.6239 41.3949C16.6239 48.9894 16.6239 56.5239 16.6239 64.1622ZM44.3572 64.1899C44.3572 56.5123 44.3572 48.9548 44.3572 41.3949C40.0165 41.3949 35.7797 41.3949 31.4874 41.3949C31.4874 49.0171 31.4874 56.5747 31.4874 64.1899C35.8074 64.1899 40.0442 64.1899 44.3572 64.1899ZM29.5282 39.4657C29.5282 31.7928 29.5282 24.256 29.5282 16.6754C29.1821 16.6754 28.9167 16.6615 28.6536 16.6777C22.7253 17.0469 17.3785 21.946 16.7854 27.9506C16.4277 31.562 16.6192 35.2289 16.5731 38.8727C16.5708 39.055 16.6308 39.2373 16.67 39.468C20.9507 39.4657 25.1922 39.4657 29.5282 39.4657ZM44.348 39.4426C44.348 35.7296 44.4957 32.0859 44.3064 28.4628C44.1241 24.9737 42.4534 22.0891 39.8111 19.8161C37.4435 17.7784 34.6951 16.6938 31.4713 16.6523C31.4713 24.2975 31.4713 31.8343 31.4713 39.4426C35.8051 39.4426 40.0696 39.4426 44.348 39.4426ZM51.8386 39.4565C51.8386 36.4312 51.8825 33.5581 51.8294 30.6874C51.6748 22.3222 47.9479 16.02 40.7296 11.8293C37.9143 10.1955 34.8358 9.34626 31.4759 9.26319C31.4759 11.137 31.4759 12.9162 31.4759 14.7416C31.9744 14.8108 32.422 14.8754 32.872 14.9331C39.8111 15.8192 45.0657 20.7922 45.998 27.7221C46.3787 30.5513 46.1618 33.4612 46.2056 36.3342C46.2218 37.3565 46.208 38.3811 46.208 39.4565C48.1348 39.4565 49.9187 39.4565 51.8386 39.4565ZM14.8077 39.4519C14.8077 39.4519 14.78 32.8866 14.8124 29.6698C14.8862 22.7029 19.7577 16.7031 26.5514 15.1985C27.516 14.9862 28.5037 14.8823 29.5421 14.7185C29.5421 12.9208 29.5421 11.1416 29.5421 9.26088C28.9398 9.2955 28.4137 9.30242 27.8921 9.36011C19.3584 10.3132 11.7963 16.8531 9.90167 25.2275C9.30861 27.8467 9.33399 30.6159 9.19322 33.3228C9.08938 35.3396 9.17245 37.3635 9.17245 39.4519C11.0924 39.4519 14.8077 39.4519 14.8077 39.4519ZM29.5352 66.0914C20.2353 66.0914 11.0324 66.0914 1.85258 66.0914C1.85258 67.9721 1.85258 69.756 1.85258 71.5767C11.1063 71.5767 20.2815 71.5767 29.5352 71.5767C29.5352 69.7352 29.5352 67.9514 29.5352 66.0914ZM31.4759 71.5744C40.7642 71.5744 49.9394 71.5744 59.1585 71.5744C59.1585 69.7029 59.1585 67.8937 59.1585 66.0545C49.9002 66.0545 40.725 66.0545 31.4759 66.0545C31.4759 67.9006 31.4759 69.6844 31.4759 71.5744ZM9.26245 41.3995C9.26245 49.0263 9.26245 56.5839 9.26245 64.1761C11.1363 64.1761 12.9201 64.1761 14.727 64.1761C14.727 56.5424 14.727 48.9779 14.727 41.3995C12.8555 41.3995 11.074 41.3995 9.26245 41.3995ZM51.7671 64.1784C51.7671 56.4962 51.7671 48.9594 51.7671 41.4342C49.8771 41.4342 48.0656 41.4342 46.2841 41.4342C46.2841 49.0702 46.2841 56.6046 46.2841 64.1784C48.1418 64.1784 49.9233 64.1784 51.7671 64.1784ZM51.5779 11.0562C50.2071 12.3647 48.8871 13.6223 47.5395 14.91C51.2848 19.0846 53.2948 23.9837 53.6178 29.6097C55.5124 29.6097 57.3285 29.6097 59.14 29.6097C59.4746 23.8245 56.0524 15.5123 51.5779 11.0562ZM7.40479 29.619C7.72556 23.9029 9.78629 19.0292 13.3955 14.9885C12.0547 13.6085 10.7878 12.307 9.47706 10.957C4.66792 16.2346 2.10412 22.4237 1.79028 29.619C3.71947 29.619 5.5079 29.619 7.40479 29.619ZM11.0186 9.53318C12.3386 10.867 13.5962 12.1385 14.9139 13.47C19.0354 9.72472 23.9783 7.73552 29.5306 7.38476C29.5306 5.4348 29.5306 3.65098 29.5306 1.87178C23.6022 1.61794 14.7431 5.3148 11.0186 9.53318ZM46.0972 13.4585C47.4887 12.1016 48.7694 10.8509 50.1194 9.53318C44.8303 4.70327 38.6642 2.1187 31.5105 1.80486C31.5105 3.75713 31.5105 5.56864 31.5105 7.41476C37.155 7.74706 42.0011 9.78472 46.0972 13.4585ZM1.85258 48.7725C1.85258 53.937 1.85258 59.0392 1.85258 64.1738C3.71486 64.1738 5.49175 64.1738 7.32864 64.1738C7.32864 58.9954 7.32864 53.8909 7.32864 48.7725C5.46175 48.7725 3.67794 48.7725 1.85258 48.7725ZM59.1954 48.7794C57.2801 48.7794 55.4986 48.7794 53.7032 48.7794C53.7032 53.9532 53.7032 59.0554 53.7032 64.1714C55.5863 64.1714 57.3678 64.1714 59.1954 64.1714C59.1954 59.0138 59.1954 53.937 59.1954 48.7794ZM1.84104 31.4974C1.84104 36.6389 1.84104 41.7134 1.84104 46.8571C3.71717 46.8571 5.52867 46.8571 7.32633 46.8571C7.32633 41.6857 7.32633 36.6019 7.32633 31.4974C5.46175 31.4974 3.67794 31.4974 1.84104 31.4974ZM53.6986 31.4928C53.6986 36.6596 53.6986 41.7688 53.6986 46.8479C55.5724 46.8479 57.3539 46.8479 59.1654 46.8479C59.1654 41.6811 59.1654 36.6065 59.1654 31.4928C57.3078 31.4928 55.5262 31.4928 53.6986 31.4928Z" fill="#FFFFFD"/>
<path d="M23.008 33.5938C24.1895 33.5938 24.7803 33.1212 24.7803 32.176C24.7803 31.6837 24.5194 31.3194 23.9975 31.0831C23.7218 30.9452 23.3625 30.8172 22.9194 30.6991C22.4862 30.5809 22.1219 30.4628 21.8265 30.3446C21.541 30.2166 21.2505 30.0443 20.9551 29.8277C20.3742 29.3945 20.0838 28.7299 20.0838 27.8339C20.0838 26.9281 20.3939 26.2192 21.0142 25.7072C21.6443 25.1853 22.4616 24.9244 23.4659 24.9244C24.48 24.9244 25.4203 25.1263 26.2867 25.5299V27.7453L24.7803 27.8487V26.9921C24.7803 26.8444 24.7606 26.7361 24.7212 26.6672C24.6129 26.4801 24.2634 26.3865 23.6726 26.3865C23.0917 26.3865 22.6585 26.4899 22.3729 26.6967C22.0973 26.9035 21.9594 27.2234 21.9594 27.6567C21.9594 27.9717 22.0776 28.2474 22.3139 28.4837C22.4714 28.6413 22.7028 28.7742 23.008 28.8825C23.3231 28.981 23.6529 29.0843 23.9975 29.1926C24.352 29.301 24.6621 29.4191 24.928 29.5471C25.2037 29.6751 25.4892 29.8523 25.7846 30.0788C26.3852 30.5219 26.6855 31.2061 26.6855 32.1317C26.6855 33.0572 26.3507 33.7858 25.6812 34.3175C25.0215 34.8492 24.1452 35.115 23.0523 35.115C21.9693 35.115 20.9945 34.9132 20.1281 34.5095V32.176L21.6345 32.0726V32.9735C21.6345 33.1212 21.6542 33.2295 21.6936 33.2984C21.733 33.3673 21.8511 33.4363 22.048 33.5052C22.2548 33.5643 22.5748 33.5938 23.008 33.5938Z" fill="#FFFFFD"/>
<path d="M33.3416 58.4611V57.2648L33.8733 57.2205C34.1293 57.2008 34.2573 57.0629 34.2573 56.8069V49.9394L33.4155 49.8951V48.6397H36.0739L40.2535 55.4187H40.283V49.9394L39.3083 49.8951V48.6397H42.9119V49.836L42.3802 49.8803C42.1439 49.9 42.0258 50.0526 42.0258 50.3381V58.4611H40.2978L36.0296 51.5787H36V57.1614L36.96 57.2057V58.4611H33.3416Z" fill="#FFFFFD"/>
<circle cx="37.3837" cy="29.9997" r="1.84612" fill="#FFFFFD"/>
<circle cx="23.3071" cy="52.6147" r="1.84612" fill="#FFFFFD"/>
</svg>
