<svg width="340" height="308" viewBox="0 0 340 308" fill="none" xmlns="http://www.w3.org/2000/svg">
<path d="M201.26 290.093C192.26 290.093 183.683 288.553 176.792 285.753C169.621 282.813 163.574 281.414 157.246 281.414C150.497 281.414 143.606 282.953 133.763 285.193C128.279 286.453 122.373 287.153 115.905 287.153C89.4683 287.153 55.7199 275.814 40.3925 243.896C31.6741 225.837 32.3772 211.838 33.0803 200.778C33.6428 189.579 34.0647 182.86 25.2057 170.26C12.1282 151.502 6.92531 129.243 10.8626 107.404C14.2375 88.0855 24.362 70.4466 38.7051 58.9673C53.0481 47.348 69.9224 44.1282 83.5623 41.6083C93.4056 39.7885 101.983 38.1086 106.905 34.1888C121.811 22.2896 140.091 9.55029 170.324 9.55029C173.277 9.55029 176.37 9.69035 179.464 9.97034C215.884 12.9102 230.227 29.709 244.289 45.948C253.992 57.1473 263.976 68.7666 284.365 78.846C300.677 86.8255 312.067 100.545 317.551 118.884C324.02 140.722 320.786 168.02 309.395 186.919C304.333 195.459 299.13 201.758 294.49 207.358C287.6 215.758 282.678 221.777 278.741 233.396L277.194 237.876L279.022 239.276L272.553 251.595L270.304 258.175L269.179 257.335C254.273 279.874 225.024 290.093 201.26 290.093Z" fill="#2A2A2A"/>
<path d="M308.406 297.256C303.431 297.256 298.572 295.545 294.638 292.464L250.211 257.553L255.996 246.6C256.575 245.574 257.037 244.433 257.269 243.292C257.963 240.44 258.773 237.702 259.698 235.192L266.64 214.884L322.058 258.466C326.686 262.117 329.578 267.251 330.272 273.069C330.966 278.888 329.231 284.478 325.644 289.042C321.479 294.176 315.116 297.256 308.406 297.256Z" fill="#2A2A2A"/>
<path d="M224.551 198.652L267.155 232.757C275.825 207.328 289.13 200.147 301.537 179.355C315.589 156.019 317.233 108.451 283.15 91.8464C226.195 63.8736 233.819 24.6817 178.658 20.1941C148.313 17.6511 131.271 29.1693 115.425 41.7347C96.5899 56.9926 65.048 50.2611 43.0734 68.2116C21.0987 86.0125 8.39229 125.952 32.6093 160.507C56.8262 195.062 34.7021 209.123 50.3983 242.032C66.0944 274.941 106.755 280.476 127.384 275.539C148.014 270.753 162.514 267.761 185.086 277.035C205.566 285.562 247.273 277.035 261.026 250.708L213.34 212.563L224.551 198.652Z" fill="#AC6EEB"/>
<path d="M317.083 272.398L267.304 232.608C266.407 235.45 265.51 238.442 264.613 241.733C263.866 244.874 262.67 247.716 261.325 250.409L306.021 286.31C309.908 289.301 315.439 288.703 318.429 284.963C321.419 281.074 320.821 275.539 317.083 272.398Z" fill="#AC6EEB"/>
<path d="M267.304 232.758L224.7 198.652L213.638 212.563L261.325 250.708C262.82 248.016 263.866 245.024 264.613 242.032C265.361 238.592 266.258 235.6 267.304 232.758Z" stroke="white" stroke-width="1.68833" stroke-miterlimit="10"/>
<path d="M229.334 202.392C239.798 188.48 246.077 170.978 246.077 152.28C246.077 106.057 208.705 68.6606 162.513 68.6606C116.322 68.6606 78.9497 106.057 78.9497 152.28C78.9497 198.502 116.322 235.899 162.513 235.899C183.441 235.899 202.576 228.12 217.226 215.406L261.324 250.559C262.819 247.866 263.866 244.874 264.613 241.883C265.51 238.592 266.407 235.6 267.304 232.758L229.334 202.392ZM85.5272 152.28C85.5272 109.797 119.909 75.3921 162.364 75.3921C204.818 75.3921 239.2 109.797 239.2 152.28C239.2 194.763 204.818 229.168 162.364 229.168C119.909 229.168 85.5272 194.763 85.5272 152.28Z" fill="white"/>
<path d="M162.363 229.317C204.818 229.317 239.2 194.912 239.2 152.429C239.2 109.947 204.818 75.5415 162.363 75.5415C119.909 75.5415 85.5269 109.947 85.5269 152.429C85.5269 194.912 119.909 229.317 162.363 229.317ZM99.8776 122.362C102.867 116.08 106.904 110.246 111.687 105.16C118.713 97.5309 127.383 91.5473 137.1 87.8077C144.574 84.8159 152.796 83.1705 161.317 83.0209C161.616 83.0209 162.064 83.0209 162.363 83.0209C170.735 83.0209 178.807 84.5168 186.281 87.2094C201.529 92.8937 214.236 103.664 222.308 117.576C225.148 122.662 227.54 128.047 229.035 133.731C230.679 139.714 231.576 145.848 231.576 152.28C231.576 156.917 231.128 161.405 230.231 165.743C228.885 172.773 226.344 179.505 223.055 185.638C220.962 189.527 218.421 193.117 215.581 196.558C212.741 199.998 209.452 203.139 206.014 205.982C201.23 209.871 195.998 213.162 190.318 215.705C181.647 219.594 172.23 221.688 162.214 221.688C145.023 221.688 129.327 215.406 117.218 205.084C110.192 199.101 104.512 191.771 100.326 183.543C95.5425 174.119 92.8517 163.499 92.8517 152.28C93.1507 141.659 95.5425 131.487 99.8776 122.362Z" fill="#AC6EEB"/>
<path d="M137.399 206.281C130.074 207.777 123.497 207.029 117.517 205.084C129.626 215.406 145.322 221.688 162.513 221.688C172.528 221.688 182.096 219.594 190.616 215.705C185.085 204.336 164.456 200.596 137.399 206.281Z" fill="#FFDB5C"/>
<path d="M159.822 186.236C155.487 186.685 151.002 186.984 146.518 187.433C136.203 188.181 128.28 186.236 122.151 182.347C106.007 172.325 102.718 149.887 102.718 135.377C102.718 130.141 101.672 125.953 100.027 122.512C95.6921 131.637 93.3003 141.659 93.3003 152.43C93.3003 163.649 95.9911 174.269 100.775 183.693C104.96 191.921 110.79 199.25 117.667 205.234C123.497 207.179 130.224 207.926 137.549 206.431C164.606 200.746 185.385 204.486 190.766 215.855C196.447 213.312 201.679 210.021 206.462 206.131C209.9 203.289 213.189 200.148 216.029 196.707C205.864 182.497 184.338 183.992 159.822 186.236Z" fill="#1AE69B"/>
<path d="M190.616 157.815C189.869 157.815 189.271 157.815 188.523 157.815C150.703 156.768 138.744 138.219 136.502 121.615C135.455 113.687 136.502 106.207 137.997 101.121C139.492 95.8858 138.744 91.3982 137.1 87.8081C127.383 91.6974 118.713 97.6809 111.687 105.16C106.903 110.246 103.017 116.08 99.8774 122.363C101.522 125.803 102.568 129.992 102.568 135.227C102.568 149.737 105.857 172.175 122.002 182.198C128.131 185.937 136.053 188.032 146.368 187.284C150.853 186.984 155.337 186.536 159.672 186.087C184.188 183.843 205.715 182.497 215.73 196.558C218.57 193.118 220.962 189.527 223.205 185.638C226.493 179.505 229.035 172.774 230.38 165.743C221.261 161.255 208.405 157.964 190.616 157.815Z" fill="#D55CFF"/>
<path d="M229.184 133.731C227.54 128.047 225.297 122.662 222.457 117.576C219.318 116.529 216.328 115.631 213.338 115.182C194.204 111.742 178.508 118.174 169.389 111.143C160.42 104.262 160.569 90.7995 161.466 83.021C152.946 83.1706 144.724 84.8161 137.249 87.8078C138.894 91.3979 139.791 95.736 138.146 101.121C136.651 106.207 135.605 113.686 136.651 121.615C138.894 138.368 150.853 156.767 188.673 157.815C189.42 157.815 190.018 157.815 190.766 157.815C208.555 157.964 221.411 161.255 230.529 165.892C231.426 161.554 231.875 157.067 231.875 152.429C231.725 145.848 230.828 139.565 229.184 133.731Z" fill="#1AE69B"/>
<path d="M186.431 87.2095C178.956 84.5169 170.884 83.021 162.513 83.021C162.214 83.021 161.765 83.021 161.466 83.021C160.569 90.7995 160.569 104.262 169.389 111.143C178.657 118.324 194.353 111.742 213.338 115.182C216.328 115.781 219.318 116.529 222.457 117.576C214.385 103.664 201.678 92.7442 186.431 87.2095Z" fill="#FFDB5C"/>
<path d="M206.014 146.595C209.004 149.737 209.004 154.673 206.014 157.814C198.241 166.191 181.648 181.15 162.364 181.15C143.229 181.15 126.636 166.191 118.714 157.814C115.724 154.673 115.724 149.737 118.714 146.595C126.487 138.218 143.08 123.26 162.364 123.26C181.648 123.26 198.241 138.218 206.014 146.595Z" fill="white"/>
<path d="M162.364 175.915C175.408 175.915 185.983 165.333 185.983 152.28C185.983 139.227 175.408 128.645 162.364 128.645C149.319 128.645 138.745 139.227 138.745 152.28C138.745 165.333 149.319 175.915 162.364 175.915Z" fill="#8572FF"/>
<path d="M64.5988 109.199L66.2432 109.648L64.7483 110.096C57.1245 112.191 51.4439 118.623 50.0986 126.401L48.3047 138.069L46.5109 126.401C45.315 118.623 39.6344 112.191 31.8611 110.096L30.3662 109.648L32.0106 109.199C39.6344 107.105 45.315 100.972 46.5109 93.1931L48.1552 83.3203L49.7996 93.1931C51.4439 100.972 57.1245 107.254 64.5988 109.199Z" fill="#FFCA49"/>
<path d="M105.857 244.874L107.203 245.174L106.007 245.473C100.027 247.118 95.3933 252.204 94.4963 258.337L93.1509 267.612L91.8056 258.337C90.9086 252.204 86.2745 247.118 80.295 245.473L79.0991 245.174L80.4445 244.874C86.424 243.229 90.9086 238.292 91.955 232.159L93.3004 224.381L94.6458 232.159C95.3933 238.292 99.8779 243.229 105.857 244.874Z" fill="#FFCA49"/>
<path d="M295.707 150.784L297.351 151.233L295.856 151.681C288.232 153.776 282.552 160.208 281.206 167.986L279.413 179.654L277.619 167.986C276.423 160.208 270.742 153.776 262.969 151.681L261.474 151.233L263.118 150.784C270.742 148.69 276.423 142.557 277.619 134.778L279.263 124.905L280.907 134.778C282.402 142.557 288.083 148.839 295.707 150.784Z" fill="#FFCA49"/>
<path d="M269.397 110.694C271.708 110.694 273.582 108.819 273.582 106.506C273.582 104.193 271.708 102.317 269.397 102.317C267.085 102.317 265.211 104.193 265.211 106.506C265.211 108.819 267.085 110.694 269.397 110.694Z" fill="#FFCA49"/>
<path d="M62.0572 152.579C64.3689 152.579 66.2429 150.704 66.2429 148.391C66.2429 146.077 64.3689 144.202 62.0572 144.202C59.7456 144.202 57.8716 146.077 57.8716 148.391C57.8716 150.704 59.7456 152.579 62.0572 152.579Z" fill="#FFCA49"/>
<path d="M134.41 55.1976C136.721 55.1976 138.595 53.3224 138.595 51.0092C138.595 48.696 136.721 46.8208 134.41 46.8208C132.098 46.8208 130.224 48.696 130.224 51.0092C130.224 53.3224 132.098 55.1976 134.41 55.1976Z" fill="#FFCA49"/>
<path d="M172.081 153.626C176.621 153.626 180.303 149.942 180.303 145.399C180.303 140.855 176.621 137.171 172.081 137.171C167.54 137.171 163.859 140.855 163.859 145.399C163.859 149.942 167.54 153.626 172.081 153.626Z" fill="white"/>
</svg>
