<svg width="308" height="308" viewBox="0 0 308 308" fill="none" xmlns="http://www.w3.org/2000/svg">
<mask id="mask0_53_3398" style="mask-type:alpha" maskUnits="userSpaceOnUse" x="0" y="0" width="308" height="308">
<circle cx="154" cy="154" r="154" fill="#2A2A2A"/>
</mask>
<g mask="url(#mask0_53_3398)">
<circle cx="154" cy="154" r="154" fill="#333333"/>
<circle cx="134.5" cy="154.5" r="145.5" fill="#DCD9F1"/>
<circle cx="154" cy="154" r="149" stroke="#333333" stroke-width="10"/>
<path d="M69.6885 90H143.323C143.323 117.49 143.323 127.203 143.323 158.553C113.934 158.553 102.085 158.553 69.6885 158.553V90Z" fill="#6C54FF"/>
<path d="M69.6885 129.581V123.282L70.8582 121.043L90.4041 131.28L86.6506 138.465L69.6885 129.581Z" fill="#FCB8C0"/>
<path d="M86.4397 158.553H75.9286L74.8558 157.255L81.0944 152.086L86.4397 158.553Z" fill="#FCB8C0"/>
<path d="M130.62 158.553H121.789L126.284 148.206L133.71 151.44L130.62 158.553Z" fill="#FCB8C0"/>
<path d="M135.333 90L129.481 100.266L122.448 96.2469L126.009 90H135.333Z" fill="#FCB8C0"/>
<path d="M79.92 90H90.0795L98.5066 101.137L92.052 106.033L79.92 90Z" fill="#FCB8C0"/>
<path d="M122.673 113.282L103.276 123.8L107.132 130.93L126.529 120.412L122.673 113.282Z" fill="#FCB8C0"/>
<path d="M143.393 158.553H218.249V175.83C218.249 190.388 211.012 204.02 198.886 212.302L143.393 250.204V158.553Z" fill="#EB6F6F"/>
<path d="M143.393 90H218.249V158.738H188.621L189.635 163.144C191.044 169.262 186.407 175.104 180.141 175.104C173.874 175.104 169.237 169.262 170.646 163.144L171.66 158.738H143.393V135.636L140.357 136.338C134.251 137.75 128.422 133.103 128.422 126.824C128.422 120.544 134.251 115.897 140.357 117.309L143.393 118.011V90Z" fill="#C4FF79"/>
<path d="M201.845 90C200.334 94.5486 199.357 101.142 198.205 108.916C195.393 127.885 191.54 153.882 176.352 174.342C172.153 172.567 169.541 167.941 170.646 163.144L171.66 158.738H166.992C183.888 140.557 185.639 124.269 187.613 105.916C188.163 100.8 188.731 95.523 189.649 90L201.845 90Z" fill="#7C4CCC"/>
<path d="M180.624 90C179.156 95.157 178.324 100.824 177.462 106.691C174.728 125.308 171.696 145.946 147.125 158.738H143.393V150.709C162.081 140.419 164.524 127.629 167.446 112.34C168.77 105.407 170.193 97.9607 173.273 90L180.624 90Z" fill="#7C4CCC"/>
<path d="M163.656 90C158.684 103.043 150.899 121.835 129.563 131.42C128.837 130.061 128.422 128.5 128.422 126.824C128.422 120.544 134.251 115.897 140.357 117.309L143.393 118.011V90L163.656 90Z" fill="#7C4CCC"/>
<path d="M107.002 141.738C100.756 141.738 96.1329 147.519 97.5375 153.574L98.5489 157.934L69.6885 158.056V176.626C69.6885 191.185 76.8139 204.816 88.7533 213.098L143.393 251V158.056L115.455 157.934L116.466 153.574C117.871 147.519 113.248 141.738 107.002 141.738Z" fill="#434AFF"/>
<path d="M63.2295 143.032L115.549 102.935L167.868 143.032V214.172H63.2295V143.032Z" fill="#0085FF"/>
<path d="M63.2295 157.149V153.49C63.4315 153.418 63.6489 153.379 63.8754 153.379C64.9456 153.379 65.8131 154.248 65.8131 155.32C65.8131 156.391 64.9456 157.26 63.8754 157.26C63.6489 157.26 63.4315 157.221 63.2295 157.149Z" fill="#2A98FF"/>
<path d="M63.2295 175.258V171.598C63.4315 171.527 63.6489 171.488 63.8754 171.488C64.9456 171.488 65.8131 172.356 65.8131 173.428C65.8131 174.499 64.9456 175.368 63.8754 175.368C63.6489 175.368 63.4315 175.329 63.2295 175.258Z" fill="#2A98FF"/>
<path d="M63.2295 193.366V189.707C63.4315 189.635 63.6489 189.596 63.8754 189.596C64.9456 189.596 65.8131 190.465 65.8131 191.536C65.8131 192.608 64.9456 193.476 63.8754 193.476C63.6489 193.476 63.4315 193.438 63.2295 193.366Z" fill="#2A98FF"/>
<path d="M63.2295 211.474V207.815C63.4315 207.743 63.6489 207.705 63.8754 207.705C64.9456 207.705 65.8131 208.573 65.8131 209.645C65.8131 210.716 64.9456 211.585 63.8754 211.585C63.6489 211.585 63.4315 211.546 63.2295 211.474Z" fill="#2A98FF"/>
<path d="M167.868 198.761V202.42C167.666 202.492 167.448 202.531 167.222 202.531C166.152 202.531 165.284 201.662 165.284 200.591C165.284 199.519 166.152 198.65 167.222 198.65C167.448 198.65 167.666 198.689 167.868 198.761Z" fill="#2A98FF"/>
<path d="M167.868 180.652V184.312C167.666 184.383 167.448 184.422 167.222 184.422C166.152 184.422 165.284 183.554 165.284 182.482C165.284 181.411 166.152 180.542 167.222 180.542C167.448 180.542 167.666 180.581 167.868 180.652Z" fill="#2A98FF"/>
<path d="M167.868 162.544V166.204C167.666 166.275 167.448 166.314 167.222 166.314C166.152 166.314 165.284 165.445 165.284 164.374C165.284 163.302 166.152 162.434 167.222 162.434C167.448 162.434 167.666 162.472 167.868 162.544Z" fill="#2A98FF"/>
<path d="M167.868 144.436V148.095C167.666 148.167 167.448 148.206 167.222 148.206C166.152 148.206 165.284 147.337 165.284 146.265C165.284 145.194 166.152 144.325 167.222 144.325C167.448 144.325 167.666 144.364 167.868 144.436Z" fill="#2A98FF"/>
<path d="M161.801 138.383L162.621 139.011C162.294 138.879 162.011 138.66 161.801 138.383Z" fill="#2A98FF"/>
<path d="M147.382 127.332L150.39 129.637C150.052 129.924 149.614 130.097 149.136 130.097C148.066 130.097 147.198 129.229 147.198 128.157C147.198 127.862 147.264 127.582 147.382 127.332Z" fill="#2A98FF"/>
<path d="M134.851 117.728L137.901 120.065C137.567 120.649 136.938 121.043 136.218 121.043C135.148 121.043 134.28 120.174 134.28 119.103C134.28 118.565 134.498 118.079 134.851 117.728Z" fill="#2A98FF"/>
<path d="M122.335 108.136L123.766 109.233C123.881 109.481 123.945 109.757 123.945 110.049C123.945 111.12 123.078 111.989 122.008 111.989C120.938 111.989 120.07 111.12 120.07 110.049C120.07 108.977 120.938 108.108 122.008 108.108C122.119 108.108 122.229 108.118 122.335 108.136Z" fill="#2A98FF"/>
<path d="M103.745 111.981L105.831 110.382C105.674 111.295 104.879 111.989 103.922 111.989C103.862 111.989 103.803 111.986 103.745 111.981Z" fill="#2A98FF"/>
<path d="M70.9843 137.088L73.3053 135.31C74.19 135.489 74.856 136.272 74.856 137.211C74.856 138.283 73.9884 139.151 72.9182 139.151C71.848 139.151 70.9805 138.283 70.9805 137.211C70.9805 137.17 70.9817 137.129 70.9843 137.088Z" fill="#2A98FF"/>
<path d="M81.961 211.585C83.0312 211.585 83.8988 210.716 83.8988 209.645C83.8988 208.573 83.0312 207.705 81.961 207.705C80.8908 207.705 80.0233 208.573 80.0233 209.645C80.0233 210.716 80.8908 211.585 81.961 211.585Z" fill="#2A98FF"/>
<path d="M101.984 209.645C101.984 210.716 101.117 211.585 100.047 211.585C98.9764 211.585 98.1089 210.716 98.1089 209.645C98.1089 208.573 98.9764 207.705 100.047 207.705C101.117 207.705 101.984 208.573 101.984 209.645Z" fill="#2A98FF"/>
<path d="M72.9182 211.585C73.9884 211.585 74.856 210.716 74.856 209.645C74.856 208.573 73.9884 207.705 72.9182 207.705C71.848 207.705 70.9805 208.573 70.9805 209.645C70.9805 210.716 71.848 211.585 72.9182 211.585Z" fill="#2A98FF"/>
<path d="M92.9416 209.645C92.9416 210.716 92.074 211.585 91.0038 211.585C89.9336 211.585 89.0661 210.716 89.0661 209.645C89.0661 208.573 89.9336 207.705 91.0038 207.705C92.074 207.705 92.9416 208.573 92.9416 209.645Z" fill="#2A98FF"/>
<path d="M109.089 211.585C110.16 211.585 111.027 210.716 111.027 209.645C111.027 208.573 110.16 207.705 109.089 207.705C108.019 207.705 107.152 208.573 107.152 209.645C107.152 210.716 108.019 211.585 109.089 211.585Z" fill="#2A98FF"/>
<path d="M120.07 209.645C120.07 210.716 119.202 211.585 118.132 211.585C117.062 211.585 116.194 210.716 116.194 209.645C116.194 208.573 117.062 207.705 118.132 207.705C119.202 207.705 120.07 208.573 120.07 209.645Z" fill="#2A98FF"/>
<path d="M136.218 211.585C137.288 211.585 138.156 210.716 138.156 209.645C138.156 208.573 137.288 207.705 136.218 207.705C135.148 207.705 134.28 208.573 134.28 209.645C134.28 210.716 135.148 211.585 136.218 211.585Z" fill="#2A98FF"/>
<path d="M156.241 209.645C156.241 210.716 155.374 211.585 154.303 211.585C153.233 211.585 152.366 210.716 152.366 209.645C152.366 208.573 153.233 207.705 154.303 207.705C155.374 207.705 156.241 208.573 156.241 209.645Z" fill="#2A98FF"/>
<path d="M127.175 211.585C128.245 211.585 129.113 210.716 129.113 209.645C129.113 208.573 128.245 207.705 127.175 207.705C126.105 207.705 125.237 208.573 125.237 209.645C125.237 210.716 126.105 211.585 127.175 211.585Z" fill="#2A98FF"/>
<path d="M147.198 209.645C147.198 210.716 146.331 211.585 145.261 211.585C144.19 211.585 143.323 210.716 143.323 209.645C143.323 208.573 144.19 207.705 145.261 207.705C146.331 207.705 147.198 208.573 147.198 209.645Z" fill="#2A98FF"/>
<path d="M163.346 211.585C164.416 211.585 165.284 210.716 165.284 209.645C165.284 208.573 164.416 207.705 163.346 207.705C162.276 207.705 161.408 208.573 161.408 209.645C161.408 210.716 162.276 211.585 163.346 211.585Z" fill="#2A98FF"/>
<path d="M76.7937 202.531C77.8639 202.531 78.7314 201.662 78.7314 200.591C78.7314 199.519 77.8639 198.65 76.7937 198.65C75.7235 198.65 74.856 199.519 74.856 200.591C74.856 201.662 75.7235 202.531 76.7937 202.531Z" fill="#2A98FF"/>
<path d="M96.817 200.591C96.817 201.662 95.9495 202.531 94.8793 202.531C93.8091 202.531 92.9416 201.662 92.9416 200.591C92.9416 199.519 93.8091 198.65 94.8793 198.65C95.9495 198.65 96.817 199.519 96.817 200.591Z" fill="#2A98FF"/>
<path d="M67.7509 202.531C68.8211 202.531 69.6886 201.662 69.6886 200.591C69.6886 199.519 68.8211 198.65 67.7509 198.65C66.6807 198.65 65.8131 199.519 65.8131 200.591C65.8131 201.662 66.6807 202.531 67.7509 202.531Z" fill="#2A98FF"/>
<path d="M87.7742 200.591C87.7742 201.662 86.9067 202.531 85.8365 202.531C84.7663 202.531 83.8988 201.662 83.8988 200.591C83.8988 199.519 84.7663 198.65 85.8365 198.65C86.9067 198.65 87.7742 199.519 87.7742 200.591Z" fill="#2A98FF"/>
<path d="M103.922 202.531C104.992 202.531 105.86 201.662 105.86 200.591C105.86 199.519 104.992 198.65 103.922 198.65C102.852 198.65 101.984 199.519 101.984 200.591C101.984 201.662 102.852 202.531 103.922 202.531Z" fill="#2A98FF"/>
<path d="M114.903 200.591C114.903 201.662 114.035 202.531 112.965 202.531C111.895 202.531 111.027 201.662 111.027 200.591C111.027 199.519 111.895 198.65 112.965 198.65C114.035 198.65 114.903 199.519 114.903 200.591Z" fill="#2A98FF"/>
<path d="M131.051 202.531C132.121 202.531 132.988 201.662 132.988 200.591C132.988 199.519 132.121 198.65 131.051 198.65C129.98 198.65 129.113 199.519 129.113 200.591C129.113 201.662 129.98 202.531 131.051 202.531Z" fill="#2A98FF"/>
<path d="M151.074 200.591C151.074 201.662 150.206 202.531 149.136 202.531C148.066 202.531 147.198 201.662 147.198 200.591C147.198 199.519 148.066 198.65 149.136 198.65C150.206 198.65 151.074 199.519 151.074 200.591Z" fill="#2A98FF"/>
<path d="M122.008 202.531C123.078 202.531 123.945 201.662 123.945 200.591C123.945 199.519 123.078 198.65 122.008 198.65C120.938 198.65 120.07 199.519 120.07 200.591C120.07 201.662 120.938 202.531 122.008 202.531Z" fill="#2A98FF"/>
<path d="M142.031 200.591C142.031 201.662 141.163 202.531 140.093 202.531C139.023 202.531 138.156 201.662 138.156 200.591C138.156 199.519 139.023 198.65 140.093 198.65C141.163 198.65 142.031 199.519 142.031 200.591Z" fill="#2A98FF"/>
<path d="M158.179 202.531C159.249 202.531 160.117 201.662 160.117 200.591C160.117 199.519 159.249 198.65 158.179 198.65C157.109 198.65 156.241 199.519 156.241 200.591C156.241 201.662 157.109 202.531 158.179 202.531Z" fill="#2A98FF"/>
<path d="M81.961 193.476C83.0312 193.476 83.8988 192.608 83.8988 191.536C83.8988 190.465 83.0312 189.596 81.961 189.596C80.8908 189.596 80.0233 190.465 80.0233 191.536C80.0233 192.608 80.8908 193.476 81.961 193.476Z" fill="#2A98FF"/>
<path d="M101.984 191.536C101.984 192.608 101.117 193.476 100.047 193.476C98.9764 193.476 98.1089 192.608 98.1089 191.536C98.1089 190.465 98.9764 189.596 100.047 189.596C101.117 189.596 101.984 190.465 101.984 191.536Z" fill="#2A98FF"/>
<path d="M72.9182 193.476C73.9884 193.476 74.856 192.608 74.856 191.536C74.856 190.465 73.9884 189.596 72.9182 189.596C71.848 189.596 70.9805 190.465 70.9805 191.536C70.9805 192.608 71.848 193.476 72.9182 193.476Z" fill="#2A98FF"/>
<path d="M92.9416 191.536C92.9416 192.608 92.074 193.476 91.0038 193.476C89.9336 193.476 89.0661 192.608 89.0661 191.536C89.0661 190.465 89.9336 189.596 91.0038 189.596C92.074 189.596 92.9416 190.465 92.9416 191.536Z" fill="#2A98FF"/>
<path d="M109.089 193.476C110.16 193.476 111.027 192.608 111.027 191.536C111.027 190.465 110.16 189.596 109.089 189.596C108.019 189.596 107.152 190.465 107.152 191.536C107.152 192.608 108.019 193.476 109.089 193.476Z" fill="#2A98FF"/>
<path d="M120.07 191.536C120.07 192.608 119.202 193.476 118.132 193.476C117.062 193.476 116.194 192.608 116.194 191.536C116.194 190.465 117.062 189.596 118.132 189.596C119.202 189.596 120.07 190.465 120.07 191.536Z" fill="#2A98FF"/>
<path d="M136.218 193.476C137.288 193.476 138.156 192.608 138.156 191.536C138.156 190.465 137.288 189.596 136.218 189.596C135.148 189.596 134.28 190.465 134.28 191.536C134.28 192.608 135.148 193.476 136.218 193.476Z" fill="#2A98FF"/>
<path d="M156.241 191.536C156.241 192.608 155.374 193.476 154.303 193.476C153.233 193.476 152.366 192.608 152.366 191.536C152.366 190.465 153.233 189.596 154.303 189.596C155.374 189.596 156.241 190.465 156.241 191.536Z" fill="#2A98FF"/>
<path d="M127.175 193.476C128.245 193.476 129.113 192.608 129.113 191.536C129.113 190.465 128.245 189.596 127.175 189.596C126.105 189.596 125.237 190.465 125.237 191.536C125.237 192.608 126.105 193.476 127.175 193.476Z" fill="#2A98FF"/>
<path d="M147.198 191.536C147.198 192.608 146.331 193.476 145.261 193.476C144.19 193.476 143.323 192.608 143.323 191.536C143.323 190.465 144.19 189.596 145.261 189.596C146.331 189.596 147.198 190.465 147.198 191.536Z" fill="#2A98FF"/>
<path d="M163.346 193.476C164.416 193.476 165.284 192.608 165.284 191.536C165.284 190.465 164.416 189.596 163.346 189.596C162.276 189.596 161.408 190.465 161.408 191.536C161.408 192.608 162.276 193.476 163.346 193.476Z" fill="#2A98FF"/>
<path d="M76.7937 184.422C77.8639 184.422 78.7314 183.554 78.7314 182.482C78.7314 181.411 77.8639 180.542 76.7937 180.542C75.7235 180.542 74.856 181.411 74.856 182.482C74.856 183.554 75.7235 184.422 76.7937 184.422Z" fill="#2A98FF"/>
<path d="M96.817 182.482C96.817 183.554 95.9495 184.422 94.8793 184.422C93.8091 184.422 92.9416 183.554 92.9416 182.482C92.9416 181.411 93.8091 180.542 94.8793 180.542C95.9495 180.542 96.817 181.411 96.817 182.482Z" fill="#2A98FF"/>
<path d="M67.7509 184.422C68.8211 184.422 69.6886 183.554 69.6886 182.482C69.6886 181.411 68.8211 180.542 67.7509 180.542C66.6807 180.542 65.8131 181.411 65.8131 182.482C65.8131 183.554 66.6807 184.422 67.7509 184.422Z" fill="#2A98FF"/>
<path d="M87.7742 182.482C87.7742 183.554 86.9067 184.422 85.8365 184.422C84.7663 184.422 83.8988 183.554 83.8988 182.482C83.8988 181.411 84.7663 180.542 85.8365 180.542C86.9067 180.542 87.7742 181.411 87.7742 182.482Z" fill="#2A98FF"/>
<path d="M103.922 184.422C104.992 184.422 105.86 183.554 105.86 182.482C105.86 181.411 104.992 180.542 103.922 180.542C102.852 180.542 101.984 181.411 101.984 182.482C101.984 183.554 102.852 184.422 103.922 184.422Z" fill="#2A98FF"/>
<path d="M114.903 182.482C114.903 183.554 114.035 184.422 112.965 184.422C111.895 184.422 111.027 183.554 111.027 182.482C111.027 181.411 111.895 180.542 112.965 180.542C114.035 180.542 114.903 181.411 114.903 182.482Z" fill="#2A98FF"/>
<path d="M131.051 184.422C132.121 184.422 132.988 183.554 132.988 182.482C132.988 181.411 132.121 180.542 131.051 180.542C129.98 180.542 129.113 181.411 129.113 182.482C129.113 183.554 129.98 184.422 131.051 184.422Z" fill="#2A98FF"/>
<path d="M151.074 182.482C151.074 183.554 150.206 184.422 149.136 184.422C148.066 184.422 147.198 183.554 147.198 182.482C147.198 181.411 148.066 180.542 149.136 180.542C150.206 180.542 151.074 181.411 151.074 182.482Z" fill="#2A98FF"/>
<path d="M122.008 184.422C123.078 184.422 123.945 183.554 123.945 182.482C123.945 181.411 123.078 180.542 122.008 180.542C120.938 180.542 120.07 181.411 120.07 182.482C120.07 183.554 120.938 184.422 122.008 184.422Z" fill="#2A98FF"/>
<path d="M142.031 182.482C142.031 183.554 141.163 184.422 140.093 184.422C139.023 184.422 138.156 183.554 138.156 182.482C138.156 181.411 139.023 180.542 140.093 180.542C141.163 180.542 142.031 181.411 142.031 182.482Z" fill="#2A98FF"/>
<path d="M158.179 184.422C159.249 184.422 160.117 183.554 160.117 182.482C160.117 181.411 159.249 180.542 158.179 180.542C157.109 180.542 156.241 181.411 156.241 182.482C156.241 183.554 157.109 184.422 158.179 184.422Z" fill="#2A98FF"/>
<path d="M81.961 175.368C83.0312 175.368 83.8988 174.499 83.8988 173.428C83.8988 172.356 83.0312 171.488 81.961 171.488C80.8908 171.488 80.0233 172.356 80.0233 173.428C80.0233 174.499 80.8908 175.368 81.961 175.368Z" fill="#2A98FF"/>
<path d="M101.984 173.428C101.984 174.499 101.117 175.368 100.047 175.368C98.9764 175.368 98.1089 174.499 98.1089 173.428C98.1089 172.356 98.9764 171.488 100.047 171.488C101.117 171.488 101.984 172.356 101.984 173.428Z" fill="#2A98FF"/>
<path d="M72.9182 175.368C73.9884 175.368 74.856 174.499 74.856 173.428C74.856 172.356 73.9884 171.488 72.9182 171.488C71.848 171.488 70.9805 172.356 70.9805 173.428C70.9805 174.499 71.848 175.368 72.9182 175.368Z" fill="#2A98FF"/>
<path d="M92.9416 173.428C92.9416 174.499 92.074 175.368 91.0038 175.368C89.9336 175.368 89.0661 174.499 89.0661 173.428C89.0661 172.356 89.9336 171.488 91.0038 171.488C92.074 171.488 92.9416 172.356 92.9416 173.428Z" fill="#2A98FF"/>
<path d="M109.089 175.368C110.16 175.368 111.027 174.499 111.027 173.428C111.027 172.356 110.16 171.488 109.089 171.488C108.019 171.488 107.152 172.356 107.152 173.428C107.152 174.499 108.019 175.368 109.089 175.368Z" fill="#2A98FF"/>
<path d="M120.07 173.428C120.07 174.499 119.202 175.368 118.132 175.368C117.062 175.368 116.194 174.499 116.194 173.428C116.194 172.356 117.062 171.488 118.132 171.488C119.202 171.488 120.07 172.356 120.07 173.428Z" fill="#2A98FF"/>
<path d="M136.218 175.368C137.288 175.368 138.156 174.499 138.156 173.428C138.156 172.356 137.288 171.488 136.218 171.488C135.148 171.488 134.28 172.356 134.28 173.428C134.28 174.499 135.148 175.368 136.218 175.368Z" fill="#2A98FF"/>
<path d="M156.241 173.428C156.241 174.499 155.374 175.368 154.303 175.368C153.233 175.368 152.366 174.499 152.366 173.428C152.366 172.356 153.233 171.488 154.303 171.488C155.374 171.488 156.241 172.356 156.241 173.428Z" fill="#2A98FF"/>
<path d="M127.175 175.368C128.245 175.368 129.113 174.499 129.113 173.428C129.113 172.356 128.245 171.488 127.175 171.488C126.105 171.488 125.237 172.356 125.237 173.428C125.237 174.499 126.105 175.368 127.175 175.368Z" fill="#2A98FF"/>
<path d="M147.198 173.428C147.198 174.499 146.331 175.368 145.261 175.368C144.19 175.368 143.323 174.499 143.323 173.428C143.323 172.356 144.19 171.488 145.261 171.488C146.331 171.488 147.198 172.356 147.198 173.428Z" fill="#2A98FF"/>
<path d="M163.346 175.368C164.416 175.368 165.284 174.499 165.284 173.428C165.284 172.356 164.416 171.488 163.346 171.488C162.276 171.488 161.408 172.356 161.408 173.428C161.408 174.499 162.276 175.368 163.346 175.368Z" fill="#2A98FF"/>
<path d="M76.7937 166.314C77.8639 166.314 78.7314 165.445 78.7314 164.374C78.7314 163.302 77.8639 162.434 76.7937 162.434C75.7235 162.434 74.856 163.302 74.856 164.374C74.856 165.445 75.7235 166.314 76.7937 166.314Z" fill="#2A98FF"/>
<path d="M96.817 164.374C96.817 165.445 95.9495 166.314 94.8793 166.314C93.8091 166.314 92.9416 165.445 92.9416 164.374C92.9416 163.302 93.8091 162.434 94.8793 162.434C95.9495 162.434 96.817 163.302 96.817 164.374Z" fill="#2A98FF"/>
<path d="M67.7509 166.314C68.8211 166.314 69.6886 165.445 69.6886 164.374C69.6886 163.302 68.8211 162.434 67.7509 162.434C66.6807 162.434 65.8131 163.302 65.8131 164.374C65.8131 165.445 66.6807 166.314 67.7509 166.314Z" fill="#2A98FF"/>
<path d="M87.7742 164.374C87.7742 165.445 86.9067 166.314 85.8365 166.314C84.7663 166.314 83.8988 165.445 83.8988 164.374C83.8988 163.302 84.7663 162.434 85.8365 162.434C86.9067 162.434 87.7742 163.302 87.7742 164.374Z" fill="#2A98FF"/>
<path d="M103.922 166.314C104.992 166.314 105.86 165.445 105.86 164.374C105.86 163.302 104.992 162.434 103.922 162.434C102.852 162.434 101.984 163.302 101.984 164.374C101.984 165.445 102.852 166.314 103.922 166.314Z" fill="#2A98FF"/>
<path d="M114.903 164.374C114.903 165.445 114.035 166.314 112.965 166.314C111.895 166.314 111.027 165.445 111.027 164.374C111.027 163.302 111.895 162.434 112.965 162.434C114.035 162.434 114.903 163.302 114.903 164.374Z" fill="#2A98FF"/>
<path d="M131.051 166.314C132.121 166.314 132.988 165.445 132.988 164.374C132.988 163.302 132.121 162.434 131.051 162.434C129.98 162.434 129.113 163.302 129.113 164.374C129.113 165.445 129.98 166.314 131.051 166.314Z" fill="#2A98FF"/>
<path d="M151.074 164.374C151.074 165.445 150.206 166.314 149.136 166.314C148.066 166.314 147.198 165.445 147.198 164.374C147.198 163.302 148.066 162.434 149.136 162.434C150.206 162.434 151.074 163.302 151.074 164.374Z" fill="#2A98FF"/>
<path d="M122.008 166.314C123.078 166.314 123.945 165.445 123.945 164.374C123.945 163.302 123.078 162.434 122.008 162.434C120.938 162.434 120.07 163.302 120.07 164.374C120.07 165.445 120.938 166.314 122.008 166.314Z" fill="#2A98FF"/>
<path d="M142.031 164.374C142.031 165.445 141.163 166.314 140.093 166.314C139.023 166.314 138.156 165.445 138.156 164.374C138.156 163.302 139.023 162.434 140.093 162.434C141.163 162.434 142.031 163.302 142.031 164.374Z" fill="#2A98FF"/>
<path d="M158.179 166.314C159.249 166.314 160.117 165.445 160.117 164.374C160.117 163.302 159.249 162.434 158.179 162.434C157.109 162.434 156.241 163.302 156.241 164.374C156.241 165.445 157.109 166.314 158.179 166.314Z" fill="#2A98FF"/>
<path d="M81.961 157.26C83.0312 157.26 83.8988 156.391 83.8988 155.32C83.8988 154.248 83.0312 153.379 81.961 153.379C80.8908 153.379 80.0233 154.248 80.0233 155.32C80.0233 156.391 80.8908 157.26 81.961 157.26Z" fill="#2A98FF"/>
<path d="M101.984 155.32C101.984 156.391 101.117 157.26 100.047 157.26C98.9764 157.26 98.1089 156.391 98.1089 155.32C98.1089 154.248 98.9764 153.379 100.047 153.379C101.117 153.379 101.984 154.248 101.984 155.32Z" fill="#2A98FF"/>
<path d="M72.9182 157.26C73.9884 157.26 74.856 156.391 74.856 155.32C74.856 154.248 73.9884 153.379 72.9182 153.379C71.848 153.379 70.9805 154.248 70.9805 155.32C70.9805 156.391 71.848 157.26 72.9182 157.26Z" fill="#2A98FF"/>
<path d="M92.9416 155.32C92.9416 156.391 92.074 157.26 91.0038 157.26C89.9336 157.26 89.0661 156.391 89.0661 155.32C89.0661 154.248 89.9336 153.379 91.0038 153.379C92.074 153.379 92.9416 154.248 92.9416 155.32Z" fill="#2A98FF"/>
<path d="M109.089 157.26C110.16 157.26 111.027 156.391 111.027 155.32C111.027 154.248 110.16 153.379 109.089 153.379C108.019 153.379 107.152 154.248 107.152 155.32C107.152 156.391 108.019 157.26 109.089 157.26Z" fill="#2A98FF"/>
<path d="M120.07 155.32C120.07 156.391 119.202 157.26 118.132 157.26C117.062 157.26 116.194 156.391 116.194 155.32C116.194 154.248 117.062 153.379 118.132 153.379C119.202 153.379 120.07 154.248 120.07 155.32Z" fill="#2A98FF"/>
<path d="M136.218 157.26C137.288 157.26 138.156 156.391 138.156 155.32C138.156 154.248 137.288 153.379 136.218 153.379C135.148 153.379 134.28 154.248 134.28 155.32C134.28 156.391 135.148 157.26 136.218 157.26Z" fill="#2A98FF"/>
<path d="M156.241 155.32C156.241 156.391 155.374 157.26 154.303 157.26C153.233 157.26 152.366 156.391 152.366 155.32C152.366 154.248 153.233 153.379 154.303 153.379C155.374 153.379 156.241 154.248 156.241 155.32Z" fill="#2A98FF"/>
<path d="M127.175 157.26C128.245 157.26 129.113 156.391 129.113 155.32C129.113 154.248 128.245 153.379 127.175 153.379C126.105 153.379 125.237 154.248 125.237 155.32C125.237 156.391 126.105 157.26 127.175 157.26Z" fill="#2A98FF"/>
<path d="M147.198 155.32C147.198 156.391 146.331 157.26 145.261 157.26C144.19 157.26 143.323 156.391 143.323 155.32C143.323 154.248 144.19 153.379 145.261 153.379C146.331 153.379 147.198 154.248 147.198 155.32Z" fill="#2A98FF"/>
<path d="M163.346 157.26C164.416 157.26 165.284 156.391 165.284 155.32C165.284 154.248 164.416 153.379 163.346 153.379C162.276 153.379 161.408 154.248 161.408 155.32C161.408 156.391 162.276 157.26 163.346 157.26Z" fill="#2A98FF"/>
<path d="M76.7937 148.206C77.8639 148.206 78.7314 147.337 78.7314 146.265C78.7314 145.194 77.8639 144.325 76.7937 144.325C75.7235 144.325 74.856 145.194 74.856 146.265C74.856 147.337 75.7235 148.206 76.7937 148.206Z" fill="#2A98FF"/>
<path d="M96.817 146.265C96.817 147.337 95.9495 148.206 94.8793 148.206C93.8091 148.206 92.9416 147.337 92.9416 146.265C92.9416 145.194 93.8091 144.325 94.8793 144.325C95.9495 144.325 96.817 145.194 96.817 146.265Z" fill="#2A98FF"/>
<path d="M67.7509 148.206C68.8211 148.206 69.6886 147.337 69.6886 146.265C69.6886 145.194 68.8211 144.325 67.7509 144.325C66.6807 144.325 65.8131 145.194 65.8131 146.265C65.8131 147.337 66.6807 148.206 67.7509 148.206Z" fill="#2A98FF"/>
<path d="M87.7742 146.265C87.7742 147.337 86.9067 148.206 85.8365 148.206C84.7663 148.206 83.8988 147.337 83.8988 146.265C83.8988 145.194 84.7663 144.325 85.8365 144.325C86.9067 144.325 87.7742 145.194 87.7742 146.265Z" fill="#2A98FF"/>
<path d="M103.922 148.206C104.992 148.206 105.86 147.337 105.86 146.265C105.86 145.194 104.992 144.325 103.922 144.325C102.852 144.325 101.984 145.194 101.984 146.265C101.984 147.337 102.852 148.206 103.922 148.206Z" fill="#2A98FF"/>
<path d="M114.903 146.265C114.903 147.337 114.035 148.206 112.965 148.206C111.895 148.206 111.027 147.337 111.027 146.265C111.027 145.194 111.895 144.325 112.965 144.325C114.035 144.325 114.903 145.194 114.903 146.265Z" fill="#2A98FF"/>
<path d="M131.051 148.206C132.121 148.206 132.988 147.337 132.988 146.265C132.988 145.194 132.121 144.325 131.051 144.325C129.98 144.325 129.113 145.194 129.113 146.265C129.113 147.337 129.98 148.206 131.051 148.206Z" fill="#2A98FF"/>
<path d="M151.074 146.265C151.074 147.337 150.206 148.206 149.136 148.206C148.066 148.206 147.198 147.337 147.198 146.265C147.198 145.194 148.066 144.325 149.136 144.325C150.206 144.325 151.074 145.194 151.074 146.265Z" fill="#2A98FF"/>
<path d="M122.008 148.206C123.078 148.206 123.945 147.337 123.945 146.265C123.945 145.194 123.078 144.325 122.008 144.325C120.938 144.325 120.07 145.194 120.07 146.265C120.07 147.337 120.938 148.206 122.008 148.206Z" fill="#2A98FF"/>
<path d="M142.031 146.265C142.031 147.337 141.163 148.206 140.093 148.206C139.023 148.206 138.156 147.337 138.156 146.265C138.156 145.194 139.023 144.325 140.093 144.325C141.163 144.325 142.031 145.194 142.031 146.265Z" fill="#2A98FF"/>
<path d="M158.179 148.206C159.249 148.206 160.117 147.337 160.117 146.265C160.117 145.194 159.249 144.325 158.179 144.325C157.109 144.325 156.241 145.194 156.241 146.265C156.241 147.337 157.109 148.206 158.179 148.206Z" fill="#2A98FF"/>
<path d="M81.961 139.151C83.0312 139.151 83.8988 138.283 83.8988 137.211C83.8988 136.14 83.0312 135.271 81.961 135.271C80.8908 135.271 80.0233 136.14 80.0233 137.211C80.0233 138.283 80.8908 139.151 81.961 139.151Z" fill="#2A98FF"/>
<path d="M101.984 137.211C101.984 138.283 101.117 139.151 100.047 139.151C98.9764 139.151 98.1089 138.283 98.1089 137.211C98.1089 136.14 98.9764 135.271 100.047 135.271C101.117 135.271 101.984 136.14 101.984 137.211Z" fill="#2A98FF"/>
<path d="M92.9416 137.211C92.9416 138.283 92.074 139.151 91.0038 139.151C89.9336 139.151 89.0661 138.283 89.0661 137.211C89.0661 136.14 89.9336 135.271 91.0038 135.271C92.074 135.271 92.9416 136.14 92.9416 137.211Z" fill="#2A98FF"/>
<path d="M109.089 139.151C110.16 139.151 111.027 138.283 111.027 137.211C111.027 136.14 110.16 135.271 109.089 135.271C108.019 135.271 107.152 136.14 107.152 137.211C107.152 138.283 108.019 139.151 109.089 139.151Z" fill="#2A98FF"/>
<path d="M120.07 137.211C120.07 138.283 119.202 139.151 118.132 139.151C117.062 139.151 116.194 138.283 116.194 137.211C116.194 136.14 117.062 135.271 118.132 135.271C119.202 135.271 120.07 136.14 120.07 137.211Z" fill="#2A98FF"/>
<path d="M136.218 139.151C137.288 139.151 138.156 138.283 138.156 137.211C138.156 136.14 137.288 135.271 136.218 135.271C135.148 135.271 134.28 136.14 134.28 137.211C134.28 138.283 135.148 139.151 136.218 139.151Z" fill="#2A98FF"/>
<path d="M156.241 137.211C156.241 138.283 155.374 139.151 154.303 139.151C153.233 139.151 152.366 138.283 152.366 137.211C152.366 136.14 153.233 135.271 154.303 135.271C155.374 135.271 156.241 136.14 156.241 137.211Z" fill="#2A98FF"/>
<path d="M127.175 139.151C128.245 139.151 129.113 138.283 129.113 137.211C129.113 136.14 128.245 135.271 127.175 135.271C126.105 135.271 125.237 136.14 125.237 137.211C125.237 138.283 126.105 139.151 127.175 139.151Z" fill="#2A98FF"/>
<path d="M147.198 137.211C147.198 138.283 146.331 139.151 145.261 139.151C144.19 139.151 143.323 138.283 143.323 137.211C143.323 136.14 144.19 135.271 145.261 135.271C146.331 135.271 147.198 136.14 147.198 137.211Z" fill="#2A98FF"/>
<path d="M96.817 128.157C96.817 129.229 95.9495 130.097 94.8793 130.097C93.8091 130.097 92.9416 129.229 92.9416 128.157C92.9416 127.085 93.8091 126.217 94.8793 126.217C95.9495 126.217 96.817 127.085 96.817 128.157Z" fill="#2A98FF"/>
<path d="M87.7742 128.157C87.7742 129.229 86.9067 130.097 85.8365 130.097C84.7663 130.097 83.8988 129.229 83.8988 128.157C83.8988 127.085 84.7663 126.217 85.8365 126.217C86.9067 126.217 87.7742 127.085 87.7742 128.157Z" fill="#2A98FF"/>
<path d="M103.922 130.097C104.992 130.097 105.86 129.229 105.86 128.157C105.86 127.085 104.992 126.217 103.922 126.217C102.852 126.217 101.984 127.085 101.984 128.157C101.984 129.229 102.852 130.097 103.922 130.097Z" fill="#2A98FF"/>
<path d="M114.903 128.157C114.903 129.229 114.035 130.097 112.965 130.097C111.895 130.097 111.027 129.229 111.027 128.157C111.027 127.085 111.895 126.217 112.965 126.217C114.035 126.217 114.903 127.085 114.903 128.157Z" fill="#2A98FF"/>
<path d="M131.051 130.097C132.121 130.097 132.988 129.229 132.988 128.157C132.988 127.085 132.121 126.217 131.051 126.217C129.98 126.217 129.113 127.085 129.113 128.157C129.113 129.229 129.98 130.097 131.051 130.097Z" fill="#2A98FF"/>
<path d="M122.008 130.097C123.078 130.097 123.945 129.229 123.945 128.157C123.945 127.085 123.078 126.217 122.008 126.217C120.938 126.217 120.07 127.085 120.07 128.157C120.07 129.229 120.938 130.097 122.008 130.097Z" fill="#2A98FF"/>
<path d="M142.031 128.157C142.031 129.229 141.163 130.097 140.093 130.097C139.023 130.097 138.156 129.229 138.156 128.157C138.156 127.085 139.023 126.217 140.093 126.217C141.163 126.217 142.031 127.085 142.031 128.157Z" fill="#2A98FF"/>
<path d="M101.984 119.103C101.984 120.174 101.117 121.043 100.047 121.043C98.9764 121.043 98.1089 120.174 98.1089 119.103C98.1089 118.031 98.9764 117.163 100.047 117.163C101.117 117.163 101.984 118.031 101.984 119.103Z" fill="#2A98FF"/>
<path d="M109.089 121.043C110.16 121.043 111.027 120.174 111.027 119.103C111.027 118.031 110.16 117.163 109.089 117.163C108.019 117.163 107.152 118.031 107.152 119.103C107.152 120.174 108.019 121.043 109.089 121.043Z" fill="#2A98FF"/>
<path d="M120.07 119.103C120.07 120.174 119.202 121.043 118.132 121.043C117.062 121.043 116.194 120.174 116.194 119.103C116.194 118.031 117.062 117.163 118.132 117.163C119.202 117.163 120.07 118.031 120.07 119.103Z" fill="#2A98FF"/>
<path d="M127.175 121.043C128.245 121.043 129.113 120.174 129.113 119.103C129.113 118.031 128.245 117.163 127.175 117.163C126.105 117.163 125.237 118.031 125.237 119.103C125.237 120.174 126.105 121.043 127.175 121.043Z" fill="#2A98FF"/>
<path d="M114.903 110.049C114.903 111.12 114.035 111.989 112.965 111.989C111.895 111.989 111.027 111.12 111.027 110.049C111.027 108.977 111.895 108.108 112.965 108.108C114.035 108.108 114.903 108.977 114.903 110.049Z" fill="#2A98FF"/>
<path d="M167.868 143.032H211.79V214.172H167.868V143.032Z" fill="#F19BFF"/>
<path d="M167.868 143.032H211.79V168.901H167.868V143.032Z" fill="#3F3F3F"/>
<path d="M197.58 168.275L211.79 143.032L226 168.275V214.172H197.58V168.275Z" fill="#006FFF"/>
<path d="M92.2656 149.314H137.361V169.907C137.361 175.882 134.294 181.398 129.323 184.362L114.813 193.015L100.303 184.362C95.333 181.398 92.2656 175.882 92.2656 169.907V149.314Z" fill="#C4FF79"/>
<path fill-rule="evenodd" clip-rule="evenodd" d="M115.227 99.6255L172.06 144.887L168.843 148.937L115.236 106.244L63.2278 147.719L60 143.678L115.227 99.6255Z" fill="#3F3F3F"/>
<rect x="207.915" y="179.249" width="9.0428" height="15.5215" fill="#F19BFF"/>
<rect x="176.911" y="179.249" width="9.04278" height="15.5215" fill="#006FFF"/>
</g>
</svg>
