<svg width="308" height="308" viewBox="0 0 308 308" fill="none" xmlns="http://www.w3.org/2000/svg">
<mask id="mask0_61_117" style="mask-type:alpha" maskUnits="userSpaceOnUse" x="0" y="0" width="308" height="308">
<circle cx="154" cy="154" r="154" fill="#2A2A2A"/>
</mask>
<g mask="url(#mask0_61_117)">
<circle cx="154" cy="154" r="154" fill="#333333"/>
<circle cx="134.5" cy="154.5" r="145.5" fill="#D9F1E0"/>
<path d="M237.639 143.201C241.734 190.674 210.613 237.038 161.473 238.926C115.148 240.705 75.0032 210.403 70.5657 166.549C66.1281 122.694 87.7831 78.0289 136.103 70.2585C189.338 61.6978 233.74 97.9946 237.639 143.201Z" fill="#D479FF"/>
<path d="M151.711 90.9897C154.808 83.9245 157.953 76.75 161.361 69.499C153.27 68.6584 144.805 68.8592 136.103 70.2585C132.903 70.7732 129.819 71.4497 126.853 72.2772C115.104 96.8282 101.075 111.136 72.9647 130.441C70.122 141.993 69.3265 154.302 70.5657 166.549C71.3466 174.266 73.2335 181.565 76.0655 188.342C120.565 162.041 135.48 128.016 151.711 90.9897Z" fill="#7A50D3"/>
<path d="M236.004 132.806C236.785 136.206 237.335 139.676 237.639 143.201C241.734 190.674 210.613 237.038 161.473 238.926C142.489 239.655 124.542 234.996 109.666 226.225C166.168 166.909 195.982 140.225 236.004 132.806Z" fill="#7A50D3"/>
<path d="M172.655 143.878C181.073 158.27 186.235 172.664 187.804 184.276C188.589 190.084 188.468 195.145 187.444 199.144C186.422 203.138 184.524 205.994 181.807 207.562C179.089 209.13 175.651 209.352 171.651 208.256C167.647 207.157 163.16 204.755 158.469 201.2C149.09 194.094 139.057 182.51 130.639 168.118C122.221 153.726 117.06 139.332 115.491 127.721C114.706 121.912 114.827 116.851 115.85 112.852C116.872 108.858 118.77 106.003 121.488 104.435C124.206 102.867 127.644 102.644 131.643 103.741C135.648 104.839 140.134 107.242 144.826 110.796C154.205 117.902 164.237 129.486 172.655 143.878Z" stroke="white" stroke-width="2"/>
<path d="M132.052 143.094C123.377 158.34 118.116 173.544 116.595 185.776C115.834 191.895 116.016 197.218 117.134 201.414C118.252 205.605 120.28 208.591 123.16 210.208C126.041 211.825 129.663 212.01 133.855 210.799C138.051 209.587 142.737 206.995 147.622 203.192C157.388 195.588 167.79 183.269 176.465 168.024C185.141 152.778 190.401 137.574 191.922 125.342C192.683 119.224 192.502 113.9 191.383 109.704C190.265 105.513 188.238 102.527 185.357 100.91C182.476 99.2927 178.854 99.108 174.662 100.319C170.466 101.531 165.781 104.123 160.895 107.927C151.129 115.53 140.728 127.849 132.052 143.094Z" stroke="#4B4B4B" stroke-width="2"/>
<path d="M154.813 131.917C138.083 130.923 122.815 132.819 111.665 136.65C106.087 138.566 101.59 140.95 98.4536 143.657C95.3209 146.36 93.6093 149.326 93.4219 152.437C93.2345 155.547 94.5779 158.695 97.3637 161.75C100.152 164.808 104.332 167.708 109.639 170.271C120.25 175.395 135.181 179.085 151.912 180.079C168.642 181.073 183.91 179.178 195.06 175.347C200.637 173.43 205.135 171.046 208.271 168.34C211.403 165.636 213.115 162.67 213.302 159.56C213.49 156.449 212.146 153.302 209.361 150.246C206.572 147.188 202.392 144.288 197.085 141.725C186.475 136.601 171.543 132.911 154.813 131.917Z" stroke="#8FFF00" stroke-width="2"/>
<ellipse cx="154" cy="157.148" rx="11.0943" ry="11.0185" fill="white"/>
<circle cx="154" cy="154" r="149" stroke="#333333" stroke-width="10"/>
</g>
</svg>
