<svg width="193" height="190" viewBox="0 0 193 190" fill="none" xmlns="http://www.w3.org/2000/svg">
<ellipse cx="116.161" cy="107.013" rx="73" ry="78.5" fill="#E580FF"/>
<ellipse cx="96.1611" cy="94.0134" rx="73" ry="78.5" fill="#B1EA84"/>
<ellipse cx="78.1611" cy="81.0134" rx="70" ry="78.5" fill="#8D9CEF"/>
<path d="M175.922 59.903C165.461 47.6141 153.989 35.8697 141.311 25.8752C132.483 18.9141 129.45 18.5641 124.589 17.2419C123.266 16.8919 122.1 16.0752 120.972 15.2586C73.6441 -18.147 13.3274 5.53633 1.66074 64.4919C-6.07814 103.614 13.8719 142.464 48.1719 158.331C48.7163 158.603 49.533 158.681 49.8052 159.109C56.6107 169.764 70.4552 173.886 78.8941 175.986C80.6052 176.609 81.9274 178.397 83.483 179.564C84.6885 180.459 85.8941 181.431 87.2552 182.053C131.861 202.742 179.811 175.053 190.311 129.242C191.789 122.786 198.283 83.8197 175.922 59.903ZM83.0163 155.842C67.1107 155.764 56.7274 153.159 47.433 148.064C2.71072 123.525 -3.97815 56.8697 35.3774 24.3197C57.933 5.69188 86.7885 2.54188 112.144 20.3919C142.283 41.5863 153.211 85.0252 136.333 117.847C124.2 141.453 104.95 154.481 83.0163 155.842ZM67.8107 165.914C65.8663 165.214 65.5941 164.709 65.9052 164.475C65.9052 164.475 66.7218 164.475 68.083 164.514C103.083 167.159 129.411 153.236 145.005 121.853C160.25 91.2086 156.555 61.1086 138.55 32.2919C139.989 32.9919 141.155 33.8474 142.205 34.8197C166.472 56.7919 173.627 94.0085 159.627 125.82C146.716 155.181 119.611 172.603 89.1218 170.425C81.9663 169.92 74.9274 167.47 67.8107 165.914ZM170.594 65.0363C170.555 63.9086 171.605 65.3086 171.761 65.503C172.305 66.2419 172.85 67.0197 173.316 67.7974C179.733 78.6086 183.739 90.3141 184.283 102.875C185.566 131.497 175.533 155.22 151.305 171.397C135.205 182.17 117.316 184.386 98.6107 178.553C125.95 175.792 147.261 163.114 161.65 139.703C176.039 116.37 178.333 91.3252 170.594 65.0363Z" fill="black"/>
<path d="M53.4607 89.9641C48.0941 90.1585 46.3441 92.9585 48.094 98.0141C52.4496 110.458 64.6996 116.525 77.1829 112.17C84.5718 109.564 90.3663 104.82 94.3718 98.0529C97.444 92.8418 96.0829 89.8474 90.0551 89.4585C83.7551 89.0307 59.3329 89.7307 53.4607 89.9641ZM54.6663 96.0307C65.3996 96.0307 75.8607 96.0307 86.4385 96.0307C75.7052 108.514 59.8385 108.747 54.6663 96.0307Z" fill="black"/>
<path d="M97.2106 67.9141C97.1717 73.9808 103.005 79.503 109.383 79.4641C114.944 79.4252 118.833 74.4085 118.872 69.0808C118.95 63.753 113.505 58.503 107.516 58.3474C101.761 58.153 97.2106 62.353 97.2106 67.9141ZM108.877 64.0641C111.755 64.5308 112.65 67.253 112.416 69.3141C112.105 72.3085 109.85 73.0474 108.45 73.0863C107.127 73.1252 104.522 71.803 103.977 69.2363C103.277 66.6308 104.755 63.0919 108.877 64.0641Z" fill="black"/>
<path d="M22.8941 69.5471C22.9719 75.4193 27.133 79.736 32.6941 79.6971C38.683 79.6582 42.9997 74.7971 42.8052 68.3027C42.6497 62.6638 38.4497 58.3082 33.2386 58.4249C27.833 58.5805 22.8163 63.9471 22.8941 69.5471ZM28.2608 69.3916C28.2608 66.3971 29.8552 64.3749 32.3441 64.3749C33.8608 64.3749 36.4274 65.5416 36.4274 68.7305C36.4274 74.2916 32.3441 73.9805 32.3441 73.9805C30.1663 73.9027 28.2608 73.0082 28.2608 69.3916Z" fill="black"/>
</svg>
