<svg width="299" height="300" viewBox="0 0 299 300" fill="none" xmlns="http://www.w3.org/2000/svg">
<path d="M256.071 178.03C244.547 175.071 225.132 171.905 217.969 167.025C215.01 165.001 215.373 162.768 215.892 161.211C216.411 159.758 219.37 158.252 221.187 158.356C225.288 158.512 229.389 159.394 233.334 160.484C242.107 162.872 250.828 165.364 259.445 168.219C264.013 169.724 265.466 173.202 262.819 175.434C261.262 176.732 259.808 178.03 256.071 178.03Z" fill="white"/>
<path d="M74.3868 258.23C74.9059 255.479 75.9441 254.026 77.4495 251.897C83.3153 243.696 89.4407 235.65 95.4622 227.604C95.8256 227.136 96.2408 226.617 96.708 226.254C98.7844 224.489 101.12 222.413 103.82 224.333C106.519 226.306 105.585 229.213 104.131 231.549C98.1096 241.36 91.9842 251.119 85.7551 260.826C84.8207 262.331 83.2115 263.629 81.6023 264.408C77.6053 266.328 74.0754 263.681 74.3868 258.23Z" fill="white"/>
<path d="M204.109 256.415C204.109 258.751 202.292 260.412 200.943 260.672C199.126 261.035 197.568 260.724 194.973 258.959C194.091 258.388 193.571 256.986 193.052 255.896C189.263 247.695 185.422 239.545 181.736 231.291C180.802 229.267 179.867 226.931 180.023 224.802C180.179 222.882 181.373 220.13 182.93 219.456C184.435 218.781 186.46 218.573 188.848 220.909C189.73 221.74 190.561 223.141 191.132 224.439C194.869 233.108 198.607 241.777 202.24 250.498C202.915 252.159 203.33 253.976 204.109 256.415Z" fill="white"/>
<path d="M39.3476 184.884C36.9598 184.209 35.4025 183.067 35.0391 181.509C34.5719 179.537 35.5582 176.89 36.7002 175.021C37.5827 173.619 39.6072 172.737 41.3202 172.166C49.8853 169.311 58.5023 166.508 67.1712 163.86C68.6247 163.393 70.4935 163.237 71.895 163.704C74.179 164.483 75.1653 166.3 73.2966 168.48C72.2584 169.726 71.0645 171.024 69.6629 171.699C61.565 175.748 53.4151 179.641 45.2134 183.482C43.708 184.157 41.6835 185.61 39.3476 184.884Z" fill="white"/>
<path d="M215.218 95.8064C214.076 95.3392 213.09 93.4704 213.038 92.2246C212.986 90.5116 213.505 88.4352 214.543 87.0336C219.371 80.3892 224.458 73.8486 229.493 67.3598C230.22 66.3736 231.206 65.5949 232.192 64.8163C234.425 63.1032 237.331 61.5979 239.304 64.1933C240.446 65.6987 240.809 69.54 239.719 70.8378C233.075 78.9357 225.911 86.6703 218.8 94.4048C218.229 95.0796 217.087 96.1697 215.218 95.8064Z" fill="white"/>
<path d="M48.7953 84.5417C51.7023 85.4242 53.9344 85.9433 56.0627 86.722C62.2399 88.9541 68.4172 91.2381 74.5425 93.574C76.2556 94.2489 78.0724 94.9237 79.474 96.0138C80.4603 96.7924 81.5504 98.765 81.187 99.4917C80.5641 100.686 79.6297 102.191 77.5014 102.035C76.6189 101.983 75.4769 101.932 74.4906 101.672C67.5347 99.8032 60.5788 98.0383 53.6748 95.9619C51.3389 95.2871 48.8991 94.3008 47.0304 92.7954C45.6807 91.7053 44.4349 89.2655 44.7983 87.8121C45.1097 86.4624 46.2517 84.5417 48.7953 84.5417Z" fill="white"/>
<path d="M143.79 63.0507C143.738 63.6737 143.686 64.2966 143.479 64.8676C142.596 67.4112 142.025 70.2662 138.443 70.0066C134.654 69.7471 134.498 66.6325 134.55 64.0889C134.706 57.9636 135.277 51.8382 135.744 45.661C135.952 43.4289 136.211 41.1448 136.834 39.0165C137.457 36.8363 138.34 34.6042 141.35 34.9676C144.153 35.3309 145.088 37.1997 145.14 39.6914C145.14 42.3907 144.309 57.9636 143.79 63.0507Z" fill="white"/>
<path d="M143.342 224.75C131.834 224.75 121.071 220.774 112.254 213.284C101.605 204.295 95.765 191.388 95.765 176.926C95.765 171.798 96.5093 166.843 97.9978 162.176C97.9406 160.966 97.9406 159.813 97.9406 158.776C97.9406 158.546 97.9406 158.315 97.9406 158.085C97.9979 155.146 97.2536 152.265 95.8795 149.672C95.078 148.289 94.5054 146.906 93.9901 145.524L89.5817 133.539C86.5473 125.357 86.4327 116.311 89.1809 108.071C91.929 99.8316 97.4253 92.6869 104.754 87.9621L105.097 87.7316C111.109 83.8711 117.922 80.9325 125.308 79.0311C131.834 77.3602 138.419 76.4958 144.945 76.4958C154.22 76.4958 162.35 77.994 169.793 81.0478C177.751 84.3321 184.507 88.9416 189.889 94.8187C195.385 100.811 199.336 107.725 201.683 115.331C203.401 121.035 204.317 126.855 204.317 132.502C204.317 138.84 203.286 144.947 201.225 150.709C199.679 155.031 197.676 159.122 195.214 162.925C195.214 162.925 195.214 162.982 195.156 162.982C192.523 167.073 191.091 171.856 191.149 176.696C191.149 176.753 191.149 176.811 191.149 176.868C191.149 191.273 185.309 204.18 174.66 213.226C165.614 220.832 154.85 224.75 143.342 224.75Z" fill="white"/>
<path d="M143.285 217.49C133.724 217.49 124.792 214.206 117.464 207.925C108.704 200.492 103.895 189.833 103.895 177.906C103.895 173.008 104.697 168.341 106.3 163.962C106.242 163.443 106.242 162.925 106.242 162.406C106.185 161.196 106.185 160.101 106.185 159.007C106.185 158.834 106.185 158.661 106.185 158.488C106.3 153.648 105.097 148.923 102.75 144.717C102.177 143.68 101.777 142.758 101.376 141.778L96.7956 129.333C94.4483 122.995 94.3338 116.023 96.4521 109.627C98.5705 103.231 102.864 97.6997 108.533 94.0697L108.933 93.8392C114.258 90.382 120.327 87.7892 127.025 86.1182C132.98 84.5625 138.991 83.8135 144.945 83.8135C153.247 83.8135 160.461 85.1387 166.931 87.7892C173.801 90.6125 179.641 94.5882 184.221 99.6011C188.916 104.729 192.294 110.549 194.24 117.002C195.729 121.957 196.53 126.97 196.53 131.868C196.53 137.284 195.614 142.47 193.897 147.367C192.523 151.113 190.805 154.685 188.687 157.969C186.855 160.85 184.679 163.558 182.332 166.094C182.103 166.324 181.874 166.612 181.587 166.843C181.473 166.958 181.473 167.073 181.416 167.131C182.332 170.588 182.79 174.218 182.79 177.963C182.79 189.89 177.981 200.55 169.221 207.983C161.721 214.206 152.789 217.49 143.285 217.49Z" fill="#010101"/>
<path d="M142.999 207.752C135.842 207.752 129.144 205.275 123.59 200.608C117.12 195.134 113.571 187.24 113.571 178.309C113.571 173.815 114.43 169.666 116.147 165.863C115.975 164.769 115.918 163.616 115.861 162.406C115.804 161.369 115.804 160.332 115.804 159.41C115.804 159.295 115.804 159.237 115.804 159.122C115.918 152.496 114.315 146.042 111.109 140.223C110.823 139.704 110.594 139.186 110.365 138.667L105.784 126.221C104.239 122.015 104.181 117.406 105.555 113.199C106.987 108.993 109.792 105.306 113.514 102.943L113.914 102.713C118.323 99.8894 123.418 97.6998 129.029 96.2593C134.182 94.9341 139.392 94.2427 144.43 94.2427C151.415 94.2427 157.369 95.2798 162.637 97.4694C168.133 99.7165 172.771 102.886 176.377 106.804C180.042 110.779 182.675 115.331 184.164 120.344C185.366 124.377 185.996 128.353 185.996 132.271C185.996 136.478 185.309 140.569 183.935 144.314C182.847 147.368 181.416 150.191 179.755 152.841C178.21 155.204 176.435 157.451 174.488 159.583C174.316 159.813 174.087 160.044 173.801 160.274C171.511 162.694 170.423 166.036 170.996 169.32C171.053 169.551 171.11 169.781 171.11 169.954C171.854 172.605 172.198 175.428 172.198 178.309C172.198 187.24 168.648 195.134 162.179 200.608C156.854 205.275 150.156 207.752 142.999 207.752Z" fill="#E59BD5"/>
<path d="M142.999 197.669C138.247 197.669 133.781 195.998 130.06 192.887C127.14 190.409 123.647 185.857 123.647 178.309C123.647 174.391 124.62 171.279 125.937 168.802C126.395 167.88 126.567 166.9 126.395 165.863C126.166 164.653 125.995 163.386 125.937 162.003C125.88 161.081 125.88 160.217 125.88 159.41C125.88 156.529 126.281 153.763 127.025 151.286C127.712 149.038 128.685 146.906 129.83 144.89C130.747 143.276 131.834 141.778 133.037 140.338C127.998 142.931 121.815 140.511 119.868 135.21L115.288 122.706C113.742 118.5 115.288 113.775 119.067 111.355L119.468 111.125C122.96 108.878 127.082 107.092 131.663 105.939C136.014 104.844 140.365 104.268 144.602 104.268C150.27 104.268 154.965 105.075 159.03 106.746C163.152 108.475 166.587 110.779 169.221 113.603C171.854 116.484 173.744 119.71 174.831 123.283C175.747 126.336 176.205 129.333 176.205 132.214C176.205 135.267 175.69 138.148 174.774 140.856C173.973 143.161 172.885 145.351 171.568 147.31C170.366 149.154 168.992 150.94 167.446 152.611C166.243 153.936 165.041 155.146 163.896 156.241C163.095 157.047 162.293 157.854 161.491 158.661C160.976 159.179 160.518 159.756 160.117 160.332C159.831 160.735 159.659 161.081 159.43 161.484V162.348L159.488 162.752C160.06 166.036 160.804 169.32 161.721 172.547C162.179 174.218 162.465 176.119 162.465 178.194C162.465 185.742 158.972 190.294 156.052 192.771C152.216 195.998 147.751 197.669 142.999 197.669Z" fill="#7449AA"/>
<path d="M143.228 125.703C140.823 125.703 138.533 125.991 136.357 126.625C134.182 127.258 131.834 128.238 129.201 129.563L124.964 118.097C127.598 116.426 130.689 115.101 134.239 114.179C137.789 113.257 141.281 112.796 144.716 112.796C149.01 112.796 152.56 113.372 155.365 114.524C158.171 115.677 160.346 117.117 161.949 118.904C163.552 120.69 164.698 122.591 165.327 124.665C165.957 126.74 166.301 128.756 166.301 130.658C166.301 132.559 166.014 134.288 165.442 135.901C164.869 137.515 164.125 138.955 163.266 140.338C162.407 141.721 161.377 142.988 160.232 144.198C159.087 145.408 157.999 146.561 156.911 147.655C156.11 148.462 155.251 149.326 154.392 150.248C153.533 151.17 152.732 152.15 152.045 153.129C151.358 154.166 150.728 155.204 150.27 156.298C149.812 157.393 149.583 158.546 149.583 159.698C149.583 159.986 149.583 160.389 149.583 160.908C149.583 161.426 149.64 161.945 149.697 162.348H136.414C136.3 161.657 136.185 160.908 136.185 160.044C136.128 159.179 136.128 158.488 136.128 157.854C136.128 155.953 136.357 154.224 136.815 152.726C137.273 151.228 137.903 149.787 138.705 148.462C139.449 147.137 140.365 145.927 141.396 144.775C142.426 143.622 143.457 142.527 144.544 141.433C146.09 139.877 147.522 138.321 148.781 136.823C150.041 135.325 150.671 133.539 150.671 131.58C150.671 129.966 150.041 128.584 148.781 127.431C147.464 126.279 145.632 125.703 143.228 125.703ZM152.617 176.753C152.617 179.749 151.644 182.054 149.754 183.667C147.865 185.281 145.69 186.087 143.228 186.087C140.766 186.087 138.647 185.281 136.701 183.667C134.811 182.054 133.838 179.749 133.838 176.753C133.838 173.757 134.811 171.452 136.701 169.839C138.59 168.226 140.766 167.419 143.228 167.419C145.69 167.419 147.808 168.226 149.754 169.839C151.644 171.51 152.617 173.815 152.617 176.753Z" fill="#FFDB5C"/>
</svg>
